<svg width="279" height="117" viewBox="0 0 279 117" fill="none" xmlns="http://www.w3.org/2000/svg">
<g filter="url(#filter0_d_58_37)">
<path d="M13.886 17.84C12.522 17.84 11.3193 17.6273 10.278 17.202C9.25133 16.7767 8.44467 16.1167 7.858 15.222C7.286 14.3127 7 13.1687 7 11.79V2.792C7 2.63067 7.05867 2.49867 7.176 2.396C7.29333 2.27867 7.42533 2.22 7.572 2.22H11.158C11.3193 2.22 11.4513 2.27867 11.554 2.396C11.6713 2.49867 11.73 2.63067 11.73 2.792V11.724C11.73 12.472 11.9133 13.0367 12.28 13.418C12.6467 13.7993 13.1747 13.99 13.864 13.99C14.5533 13.99 15.074 13.7993 15.426 13.418C15.7927 13.0367 15.976 12.472 15.976 11.724V2.792C15.976 2.63067 16.0347 2.49867 16.152 2.396C16.2693 2.27867 16.4087 2.22 16.57 2.22H20.134C20.2953 2.22 20.4273 2.27867 20.53 2.396C20.6473 2.49867 20.706 2.63067 20.706 2.792V11.79C20.706 13.1687 20.42 14.3127 19.848 15.222C19.276 16.1167 18.4767 16.7767 17.45 17.202C16.4233 17.6273 15.2353 17.84 13.886 17.84Z" fill="#1FE0F4"/>
<path d="M29.9752 17.84C28.5819 17.84 27.3646 17.6273 26.3232 17.202C25.2819 16.762 24.4606 16.102 23.8592 15.222C23.2726 14.342 22.9499 13.2273 22.8912 11.878C22.8766 11.2767 22.8692 10.6313 22.8692 9.942C22.8692 9.25267 22.8766 8.59267 22.8912 7.962C22.9499 6.642 23.2799 5.542 23.8812 4.662C24.4972 3.76733 25.3259 3.1 26.3672 2.66C27.4232 2.22 28.6259 2 29.9752 2C30.9432 2 31.8452 2.11733 32.6812 2.352C33.5319 2.572 34.2872 2.91667 34.9472 3.386C35.6072 3.84067 36.1279 4.41267 36.5092 5.102C36.8906 5.77667 37.0886 6.56867 37.1032 7.478C37.1032 7.61 37.0519 7.72 36.9492 7.808C36.8612 7.896 36.7512 7.94 36.6192 7.94H32.9012C32.6812 7.94 32.5199 7.896 32.4172 7.808C32.3146 7.72 32.2266 7.566 32.1532 7.346C31.9626 6.71533 31.6839 6.29 31.3172 6.07C30.9506 5.85 30.5032 5.74 29.9752 5.74C29.3299 5.74 28.8166 5.916 28.4352 6.268C28.0539 6.60533 27.8486 7.20667 27.8192 8.072C27.7752 9.27467 27.7752 10.5067 27.8192 11.768C27.8486 12.6333 28.0539 13.242 28.4352 13.594C28.8166 13.9313 29.3299 14.1 29.9752 14.1C30.5032 14.1 30.9506 13.9827 31.3172 13.748C31.6986 13.5133 31.9772 13.0953 32.1532 12.494C32.2119 12.2593 32.2926 12.1053 32.3952 12.032C32.5126 11.944 32.6812 11.9 32.9012 11.9H36.6192C36.7512 11.9 36.8612 11.944 36.9492 12.032C37.0519 12.12 37.1032 12.23 37.1032 12.362C37.0886 13.2713 36.8906 14.0707 36.5092 14.76C36.1279 15.4347 35.6072 16.0067 34.9472 16.476C34.2872 16.9307 33.5319 17.2753 32.6812 17.51C31.8452 17.73 30.9432 17.84 29.9752 17.84Z" fill="#1FE0F4"/>
<path d="M39.6942 17.62C39.5476 17.62 39.4156 17.5687 39.2982 17.466C39.1809 17.3487 39.1222 17.2093 39.1222 17.048V2.792C39.1222 2.63067 39.1809 2.49867 39.2982 2.396C39.4156 2.27867 39.5476 2.22 39.6942 2.22H43.3462C43.5076 2.22 43.6469 2.27867 43.7642 2.396C43.8816 2.49867 43.9402 2.63067 43.9402 2.792V13.704H50.2982C50.4596 13.704 50.5989 13.7627 50.7162 13.88C50.8336 13.9827 50.8922 14.1147 50.8922 14.276V17.048C50.8922 17.2093 50.8336 17.3487 50.7162 17.466C50.5989 17.5687 50.4596 17.62 50.2982 17.62H39.6942Z" fill="#1FE0F4"/>
<path d="M51.7795 17.62C51.6475 17.62 51.5301 17.576 51.4275 17.488C51.3395 17.3853 51.2955 17.268 51.2955 17.136C51.2955 17.0773 51.3101 17.026 51.3395 16.982L56.3555 2.902C56.3995 2.74067 56.4948 2.58667 56.6415 2.44C56.8028 2.29333 57.0155 2.22 57.2795 2.22H61.3055C61.5841 2.22 61.7968 2.29333 61.9435 2.44C62.0901 2.58667 62.1855 2.74067 62.2295 2.902L67.2675 16.982C67.2821 17.026 67.2895 17.0773 67.2895 17.136C67.2895 17.268 67.2381 17.3853 67.1355 17.488C67.0475 17.576 66.9375 17.62 66.8055 17.62H63.4175C63.1681 17.62 62.9848 17.5613 62.8675 17.444C62.7501 17.3267 62.6695 17.2167 62.6255 17.114L61.9435 15.266H56.6415L55.9595 17.114C55.9155 17.2167 55.8348 17.3267 55.7175 17.444C55.6148 17.5613 55.4315 17.62 55.1675 17.62H51.7795ZM57.6535 11.548H60.9315L59.2815 6.598L57.6535 11.548Z" fill="#1FE0F4"/>
<path d="M79.2174 17.84C77.8241 17.84 76.6067 17.6273 75.5654 17.202C74.5241 16.762 73.7027 16.102 73.1014 15.222C72.5147 14.342 72.1921 13.2273 72.1334 11.878C72.1187 11.2767 72.1114 10.6313 72.1114 9.942C72.1114 9.25267 72.1187 8.59267 72.1334 7.962C72.1921 6.642 72.5221 5.542 73.1234 4.662C73.7394 3.76733 74.5681 3.1 75.6094 2.66C76.6654 2.22 77.8681 2 79.2174 2C80.1854 2 81.0874 2.11733 81.9234 2.352C82.7741 2.572 83.5294 2.91667 84.1894 3.386C84.8494 3.84067 85.3701 4.41267 85.7514 5.102C86.1327 5.77667 86.3307 6.56867 86.3454 7.478C86.3454 7.61 86.2941 7.72 86.1914 7.808C86.1034 7.896 85.9934 7.94 85.8614 7.94H82.1434C81.9234 7.94 81.7621 7.896 81.6594 7.808C81.5567 7.72 81.4687 7.566 81.3954 7.346C81.2047 6.71533 80.9261 6.29 80.5594 6.07C80.1927 5.85 79.7454 5.74 79.2174 5.74C78.5721 5.74 78.0587 5.916 77.6774 6.268C77.2961 6.60533 77.0907 7.20667 77.0614 8.072C77.0174 9.27467 77.0174 10.5067 77.0614 11.768C77.0907 12.6333 77.2961 13.242 77.6774 13.594C78.0587 13.9313 78.5721 14.1 79.2174 14.1C79.7454 14.1 80.1927 13.9827 80.5594 13.748C80.9407 13.5133 81.2194 13.0953 81.3954 12.494C81.4541 12.2593 81.5347 12.1053 81.6374 12.032C81.7547 11.944 81.9234 11.9 82.1434 11.9H85.8614C85.9934 11.9 86.1034 11.944 86.1914 12.032C86.2941 12.12 86.3454 12.23 86.3454 12.362C86.3307 13.2713 86.1327 14.0707 85.7514 14.76C85.3701 15.4347 84.8494 16.0067 84.1894 16.476C83.5294 16.9307 82.7741 17.2753 81.9234 17.51C81.0874 17.73 80.1854 17.84 79.2174 17.84Z" fill="#1FE0F4"/>
<path d="M95.0084 17.84C93.6004 17.84 92.3758 17.62 91.3344 17.18C90.3078 16.74 89.4938 16.08 88.8924 15.2C88.3058 14.3053 87.9904 13.198 87.9464 11.878C87.9318 11.262 87.9244 10.6313 87.9244 9.986C87.9244 9.326 87.9318 8.67333 87.9464 8.028C87.9904 6.72267 88.3058 5.62267 88.8924 4.728C89.4938 3.83333 90.3151 3.15867 91.3564 2.704C92.3978 2.23467 93.6151 2 95.0084 2C96.3871 2 97.5971 2.23467 98.6384 2.704C99.6798 3.15867 100.501 3.83333 101.102 4.728C101.704 5.62267 102.019 6.72267 102.048 8.028C102.078 8.67333 102.092 9.326 102.092 9.986C102.092 10.6313 102.078 11.262 102.048 11.878C102.004 13.198 101.682 14.3053 101.08 15.2C100.494 16.08 99.6798 16.74 98.6384 17.18C97.6118 17.62 96.4018 17.84 95.0084 17.84ZM95.0084 14.1C95.6244 14.1 96.1304 13.9167 96.5264 13.55C96.9224 13.1687 97.1278 12.5673 97.1424 11.746C97.1718 11.1153 97.1864 10.5067 97.1864 9.92C97.1864 9.31867 97.1718 8.71 97.1424 8.094C97.1278 7.55133 97.0251 7.104 96.8344 6.752C96.6584 6.4 96.4091 6.14333 96.0864 5.982C95.7784 5.82067 95.4191 5.74 95.0084 5.74C94.5978 5.74 94.2311 5.82067 93.9084 5.982C93.5858 6.14333 93.3291 6.4 93.1384 6.752C92.9624 7.104 92.8671 7.55133 92.8524 8.094C92.8378 8.71 92.8304 9.31867 92.8304 9.92C92.8304 10.5067 92.8378 11.1153 92.8524 11.746C92.8818 12.5673 93.0871 13.1687 93.4684 13.55C93.8644 13.9167 94.3778 14.1 95.0084 14.1Z" fill="#1FE0F4"/>
<path d="M104.921 17.62C104.774 17.62 104.642 17.5687 104.525 17.466C104.407 17.3487 104.349 17.2093 104.349 17.048V2.792C104.349 2.63067 104.407 2.49867 104.525 2.396C104.642 2.27867 104.774 2.22 104.921 2.22H107.847C108.111 2.22 108.301 2.286 108.419 2.418C108.536 2.53533 108.617 2.62333 108.661 2.682L113.193 9.964V2.792C113.193 2.63067 113.251 2.49867 113.369 2.396C113.486 2.27867 113.618 2.22 113.765 2.22H117.087C117.248 2.22 117.38 2.27867 117.483 2.396C117.6 2.49867 117.659 2.63067 117.659 2.792V17.048C117.659 17.2093 117.6 17.3487 117.483 17.466C117.38 17.5687 117.248 17.62 117.087 17.62H114.183C113.904 17.62 113.706 17.5613 113.589 17.444C113.471 17.312 113.391 17.2167 113.347 17.158L108.815 10.294V17.048C108.815 17.2093 108.756 17.3487 108.639 17.466C108.536 17.5687 108.404 17.62 108.243 17.62H104.921Z" fill="#1FE0F4"/>
<path d="M120.991 17.62C120.844 17.62 120.712 17.5687 120.595 17.466C120.478 17.3487 120.419 17.2093 120.419 17.048V2.792C120.419 2.63067 120.478 2.49867 120.595 2.396C120.712 2.27867 120.844 2.22 120.991 2.22H123.917C124.181 2.22 124.372 2.286 124.489 2.418C124.606 2.53533 124.687 2.62333 124.731 2.682L129.263 9.964V2.792C129.263 2.63067 129.322 2.49867 129.439 2.396C129.556 2.27867 129.688 2.22 129.835 2.22H133.157C133.318 2.22 133.45 2.27867 133.553 2.396C133.67 2.49867 133.729 2.63067 133.729 2.792V17.048C133.729 17.2093 133.67 17.3487 133.553 17.466C133.45 17.5687 133.318 17.62 133.157 17.62H130.253C129.974 17.62 129.776 17.5613 129.659 17.444C129.542 17.312 129.461 17.2167 129.417 17.158L124.885 10.294V17.048C124.885 17.2093 124.826 17.3487 124.709 17.466C124.606 17.5687 124.474 17.62 124.313 17.62H120.991Z" fill="#1FE0F4"/>
<path d="M137.061 17.62C136.915 17.62 136.783 17.5687 136.665 17.466C136.548 17.3487 136.489 17.2093 136.489 17.048V2.792C136.489 2.63067 136.548 2.49867 136.665 2.396C136.783 2.27867 136.915 2.22 137.061 2.22H147.841C148.003 2.22 148.142 2.27867 148.259 2.396C148.377 2.49867 148.435 2.63067 148.435 2.792V5.388C148.435 5.53467 148.377 5.66667 148.259 5.784C148.142 5.90133 148.003 5.96 147.841 5.96H141.043V8.138H147.357C147.519 8.138 147.658 8.19667 147.775 8.314C147.893 8.41667 147.951 8.54867 147.951 8.71V11.086C147.951 11.2473 147.893 11.3867 147.775 11.504C147.658 11.6067 147.519 11.658 147.357 11.658H141.043V13.88H148.017C148.179 13.88 148.318 13.9387 148.435 14.056C148.553 14.1733 148.611 14.3127 148.611 14.474V17.048C148.611 17.2093 148.553 17.3487 148.435 17.466C148.318 17.5687 148.179 17.62 148.017 17.62H137.061Z" fill="#1FE0F4"/>
<path d="M157.399 17.84C156.006 17.84 154.788 17.6273 153.747 17.202C152.706 16.762 151.884 16.102 151.283 15.222C150.696 14.342 150.374 13.2273 150.315 11.878C150.3 11.2767 150.293 10.6313 150.293 9.942C150.293 9.25267 150.3 8.59267 150.315 7.962C150.374 6.642 150.704 5.542 151.305 4.662C151.921 3.76733 152.75 3.1 153.791 2.66C154.847 2.22 156.05 2 157.399 2C158.367 2 159.269 2.11733 160.105 2.352C160.956 2.572 161.711 2.91667 162.371 3.386C163.031 3.84067 163.552 4.41267 163.933 5.102C164.314 5.77667 164.512 6.56867 164.527 7.478C164.527 7.61 164.476 7.72 164.373 7.808C164.285 7.896 164.175 7.94 164.043 7.94H160.325C160.105 7.94 159.944 7.896 159.841 7.808C159.738 7.72 159.65 7.566 159.577 7.346C159.386 6.71533 159.108 6.29 158.741 6.07C158.374 5.85 157.927 5.74 157.399 5.74C156.754 5.74 156.24 5.916 155.859 6.268C155.478 6.60533 155.272 7.20667 155.243 8.072C155.199 9.27467 155.199 10.5067 155.243 11.768C155.272 12.6333 155.478 13.242 155.859 13.594C156.24 13.9313 156.754 14.1 157.399 14.1C157.927 14.1 158.374 13.9827 158.741 13.748C159.122 13.5133 159.401 13.0953 159.577 12.494C159.636 12.2593 159.716 12.1053 159.819 12.032C159.936 11.944 160.105 11.9 160.325 11.9H164.043C164.175 11.9 164.285 11.944 164.373 12.032C164.476 12.12 164.527 12.23 164.527 12.362C164.512 13.2713 164.314 14.0707 163.933 14.76C163.552 15.4347 163.031 16.0067 162.371 16.476C161.711 16.9307 160.956 17.2753 160.105 17.51C159.269 17.73 158.367 17.84 157.399 17.84Z" fill="#1FE0F4"/>
<path d="M170.528 17.62C170.367 17.62 170.227 17.5687 170.11 17.466C170.007 17.3487 169.956 17.2093 169.956 17.048V6.312H166.172C166.011 6.312 165.871 6.26067 165.754 6.158C165.651 6.04067 165.6 5.90133 165.6 5.74V2.792C165.6 2.63067 165.651 2.49867 165.754 2.396C165.871 2.27867 166.011 2.22 166.172 2.22H178.536C178.697 2.22 178.829 2.27867 178.932 2.396C179.049 2.49867 179.108 2.63067 179.108 2.792V5.74C179.108 5.90133 179.049 6.04067 178.932 6.158C178.829 6.26067 178.697 6.312 178.536 6.312H174.752V17.048C174.752 17.2093 174.693 17.3487 174.576 17.466C174.473 17.5687 174.341 17.62 174.18 17.62H170.528Z" fill="#1FE0F4"/>
<path d="M181.47 17.62C181.323 17.62 181.191 17.5687 181.074 17.466C180.956 17.3487 180.898 17.2093 180.898 17.048V2.792C180.898 2.63067 180.956 2.49867 181.074 2.396C181.191 2.27867 181.323 2.22 181.47 2.22H185.21C185.371 2.22 185.503 2.27867 185.606 2.396C185.723 2.49867 185.782 2.63067 185.782 2.792V17.048C185.782 17.2093 185.723 17.3487 185.606 17.466C185.503 17.5687 185.371 17.62 185.21 17.62H181.47Z" fill="#1FE0F4"/>
<path d="M195.147 17.84C193.739 17.84 192.514 17.62 191.473 17.18C190.446 16.74 189.632 16.08 189.031 15.2C188.444 14.3053 188.129 13.198 188.085 11.878C188.07 11.262 188.063 10.6313 188.063 9.986C188.063 9.326 188.07 8.67333 188.085 8.028C188.129 6.72267 188.444 5.62267 189.031 4.728C189.632 3.83333 190.454 3.15867 191.495 2.704C192.536 2.23467 193.754 2 195.147 2C196.526 2 197.736 2.23467 198.777 2.704C199.818 3.15867 200.64 3.83333 201.241 4.728C201.842 5.62267 202.158 6.72267 202.187 8.028C202.216 8.67333 202.231 9.326 202.231 9.986C202.231 10.6313 202.216 11.262 202.187 11.878C202.143 13.198 201.82 14.3053 201.219 15.2C200.632 16.08 199.818 16.74 198.777 17.18C197.75 17.62 196.54 17.84 195.147 17.84ZM195.147 14.1C195.763 14.1 196.269 13.9167 196.665 13.55C197.061 13.1687 197.266 12.5673 197.281 11.746C197.31 11.1153 197.325 10.5067 197.325 9.92C197.325 9.31867 197.31 8.71 197.281 8.094C197.266 7.55133 197.164 7.104 196.973 6.752C196.797 6.4 196.548 6.14333 196.225 5.982C195.917 5.82067 195.558 5.74 195.147 5.74C194.736 5.74 194.37 5.82067 194.047 5.982C193.724 6.14333 193.468 6.4 193.277 6.752C193.101 7.104 193.006 7.55133 192.991 8.094C192.976 8.71 192.969 9.31867 192.969 9.92C192.969 10.5067 192.976 11.1153 192.991 11.746C193.02 12.5673 193.226 13.1687 193.607 13.55C194.003 13.9167 194.516 14.1 195.147 14.1Z" fill="#1FE0F4"/>
<path d="M205.059 17.62C204.913 17.62 204.781 17.5687 204.663 17.466C204.546 17.3487 204.487 17.2093 204.487 17.048V2.792C204.487 2.63067 204.546 2.49867 204.663 2.396C204.781 2.27867 204.913 2.22 205.059 2.22H207.985C208.249 2.22 208.44 2.286 208.557 2.418C208.675 2.53533 208.755 2.62333 208.799 2.682L213.331 9.964V2.792C213.331 2.63067 213.39 2.49867 213.507 2.396C213.625 2.27867 213.757 2.22 213.903 2.22H217.225C217.387 2.22 217.519 2.27867 217.621 2.396C217.739 2.49867 217.797 2.63067 217.797 2.792V17.048C217.797 17.2093 217.739 17.3487 217.621 17.466C217.519 17.5687 217.387 17.62 217.225 17.62H214.321C214.043 17.62 213.845 17.5613 213.727 17.444C213.61 17.312 213.529 17.2167 213.485 17.158L208.953 10.294V17.048C208.953 17.2093 208.895 17.3487 208.777 17.466C208.675 17.5687 208.543 17.62 208.381 17.62H205.059Z" fill="#1FE0F4"/>
<path d="M225.513 17.62C225.366 17.62 225.234 17.5687 225.117 17.466C224.999 17.3487 224.941 17.2093 224.941 17.048V2.792C224.941 2.63067 224.999 2.49867 225.117 2.396C225.234 2.27867 225.366 2.22 225.513 2.22H229.165C229.326 2.22 229.465 2.27867 229.583 2.396C229.7 2.49867 229.759 2.63067 229.759 2.792V13.704H236.117C236.278 13.704 236.417 13.7627 236.535 13.88C236.652 13.9827 236.711 14.1147 236.711 14.276V17.048C236.711 17.2093 236.652 17.3487 236.535 17.466C236.417 17.5687 236.278 17.62 236.117 17.62H225.513Z" fill="#1FE0F4"/>
<path d="M237.598 17.62C237.466 17.62 237.348 17.576 237.246 17.488C237.158 17.3853 237.114 17.268 237.114 17.136C237.114 17.0773 237.128 17.026 237.158 16.982L242.174 2.902C242.218 2.74067 242.313 2.58667 242.46 2.44C242.621 2.29333 242.834 2.22 243.098 2.22H247.124C247.402 2.22 247.615 2.29333 247.762 2.44C247.908 2.58667 248.004 2.74067 248.048 2.902L253.086 16.982C253.1 17.026 253.108 17.0773 253.108 17.136C253.108 17.268 253.056 17.3853 252.954 17.488C252.866 17.576 252.756 17.62 252.624 17.62H249.236C248.986 17.62 248.803 17.5613 248.686 17.444C248.568 17.3267 248.488 17.2167 248.444 17.114L247.762 15.266H242.46L241.778 17.114C241.734 17.2167 241.653 17.3267 241.536 17.444C241.433 17.5613 241.25 17.62 240.986 17.62H237.598ZM243.472 11.548H246.75L245.1 6.598L243.472 11.548Z" fill="#1FE0F4"/>
<path d="M255.14 17.62C254.993 17.62 254.861 17.5687 254.744 17.466C254.626 17.3487 254.568 17.2093 254.568 17.048V2.792C254.568 2.63067 254.626 2.49867 254.744 2.396C254.861 2.27867 254.993 2.22 255.14 2.22H262.158C263.492 2.22 264.585 2.396 265.436 2.748C266.286 3.1 266.917 3.606 267.328 4.266C267.738 4.926 267.944 5.74 267.944 6.708C267.944 7.20667 267.841 7.654 267.636 8.05C267.445 8.43133 267.21 8.754 266.932 9.018C266.653 9.26733 266.389 9.45067 266.14 9.568C266.712 9.81733 267.21 10.2427 267.636 10.844C268.061 11.4307 268.274 12.1053 268.274 12.868C268.274 13.8947 268.039 14.76 267.57 15.464C267.115 16.168 266.448 16.7033 265.568 17.07C264.702 17.4367 263.639 17.62 262.378 17.62H255.14ZM259.298 14.298H261.872C262.37 14.298 262.737 14.1513 262.972 13.858C263.206 13.55 263.324 13.2127 263.324 12.846C263.324 12.4647 263.199 12.1347 262.95 11.856C262.7 11.5627 262.341 11.416 261.872 11.416H259.298V14.298ZM259.298 8.182H261.652C262.121 8.182 262.466 8.05 262.686 7.786C262.906 7.522 263.016 7.214 263.016 6.862C263.016 6.51 262.906 6.202 262.686 5.938C262.466 5.674 262.121 5.542 261.652 5.542H259.298V8.182Z" fill="#1FE0F4"/>
<path d="M12.886 16.84C11.522 16.84 10.3193 16.6273 9.278 16.202C8.25133 15.7767 7.44467 15.1167 6.858 14.222C6.286 13.3127 6 12.1687 6 10.79V1.792C6 1.63067 6.05867 1.49867 6.176 1.396C6.29333 1.27867 6.42533 1.22 6.572 1.22H10.158C10.3193 1.22 10.4513 1.27867 10.554 1.396C10.6713 1.49867 10.73 1.63067 10.73 1.792V10.724C10.73 11.472 10.9133 12.0367 11.28 12.418C11.6467 12.7993 12.1747 12.99 12.864 12.99C13.5533 12.99 14.074 12.7993 14.426 12.418C14.7927 12.0367 14.976 11.472 14.976 10.724V1.792C14.976 1.63067 15.0347 1.49867 15.152 1.396C15.2693 1.27867 15.4087 1.22 15.57 1.22H19.134C19.2953 1.22 19.4273 1.27867 19.53 1.396C19.6473 1.49867 19.706 1.63067 19.706 1.792V10.79C19.706 12.1687 19.42 13.3127 18.848 14.222C18.276 15.1167 17.4767 15.7767 16.45 16.202C15.4233 16.6273 14.2353 16.84 12.886 16.84Z" fill="#008FE0"/>
<path d="M28.9752 16.84C27.5819 16.84 26.3646 16.6273 25.3232 16.202C24.2819 15.762 23.4606 15.102 22.8592 14.222C22.2726 13.342 21.9499 12.2273 21.8912 10.878C21.8766 10.2767 21.8692 9.63133 21.8692 8.942C21.8692 8.25267 21.8766 7.59267 21.8912 6.962C21.9499 5.642 22.2799 4.542 22.8812 3.662C23.4972 2.76733 24.3259 2.1 25.3672 1.66C26.4232 1.22 27.6259 1 28.9752 1C29.9432 1 30.8452 1.11733 31.6812 1.352C32.5319 1.572 33.2872 1.91667 33.9472 2.386C34.6072 2.84067 35.1279 3.41267 35.5092 4.102C35.8906 4.77667 36.0886 5.56867 36.1032 6.478C36.1032 6.61 36.0519 6.72 35.9492 6.808C35.8612 6.896 35.7512 6.94 35.6192 6.94H31.9012C31.6812 6.94 31.5199 6.896 31.4172 6.808C31.3146 6.72 31.2266 6.566 31.1532 6.346C30.9626 5.71533 30.6839 5.29 30.3172 5.07C29.9506 4.85 29.5032 4.74 28.9752 4.74C28.3299 4.74 27.8166 4.916 27.4352 5.268C27.0539 5.60533 26.8486 6.20667 26.8192 7.072C26.7752 8.27467 26.7752 9.50667 26.8192 10.768C26.8486 11.6333 27.0539 12.242 27.4352 12.594C27.8166 12.9313 28.3299 13.1 28.9752 13.1C29.5032 13.1 29.9506 12.9827 30.3172 12.748C30.6986 12.5133 30.9772 12.0953 31.1532 11.494C31.2119 11.2593 31.2926 11.1053 31.3952 11.032C31.5126 10.944 31.6812 10.9 31.9012 10.9H35.6192C35.7512 10.9 35.8612 10.944 35.9492 11.032C36.0519 11.12 36.1032 11.23 36.1032 11.362C36.0886 12.2713 35.8906 13.0707 35.5092 13.76C35.1279 14.4347 34.6072 15.0067 33.9472 15.476C33.2872 15.9307 32.5319 16.2753 31.6812 16.51C30.8452 16.73 29.9432 16.84 28.9752 16.84Z" fill="#008FE0"/>
<path d="M38.6942 16.62C38.5476 16.62 38.4156 16.5687 38.2982 16.466C38.1809 16.3487 38.1222 16.2093 38.1222 16.048V1.792C38.1222 1.63067 38.1809 1.49867 38.2982 1.396C38.4156 1.27867 38.5476 1.22 38.6942 1.22H42.3462C42.5076 1.22 42.6469 1.27867 42.7642 1.396C42.8816 1.49867 42.9402 1.63067 42.9402 1.792V12.704H49.2982C49.4596 12.704 49.5989 12.7627 49.7162 12.88C49.8336 12.9827 49.8922 13.1147 49.8922 13.276V16.048C49.8922 16.2093 49.8336 16.3487 49.7162 16.466C49.5989 16.5687 49.4596 16.62 49.2982 16.62H38.6942Z" fill="#008FE0"/>
<path d="M50.7795 16.62C50.6475 16.62 50.5301 16.576 50.4275 16.488C50.3395 16.3853 50.2955 16.268 50.2955 16.136C50.2955 16.0773 50.3101 16.026 50.3395 15.982L55.3555 1.902C55.3995 1.74067 55.4948 1.58667 55.6415 1.44C55.8028 1.29333 56.0155 1.22 56.2795 1.22H60.3055C60.5841 1.22 60.7968 1.29333 60.9435 1.44C61.0901 1.58667 61.1855 1.74067 61.2295 1.902L66.2675 15.982C66.2821 16.026 66.2895 16.0773 66.2895 16.136C66.2895 16.268 66.2381 16.3853 66.1355 16.488C66.0475 16.576 65.9375 16.62 65.8055 16.62H62.4175C62.1681 16.62 61.9848 16.5613 61.8675 16.444C61.7501 16.3267 61.6695 16.2167 61.6255 16.114L60.9435 14.266H55.6415L54.9595 16.114C54.9155 16.2167 54.8348 16.3267 54.7175 16.444C54.6148 16.5613 54.4315 16.62 54.1675 16.62H50.7795ZM56.6535 10.548H59.9315L58.2815 5.598L56.6535 10.548Z" fill="#008FE0"/>
<path d="M78.2174 16.84C76.8241 16.84 75.6067 16.6273 74.5654 16.202C73.5241 15.762 72.7027 15.102 72.1014 14.222C71.5147 13.342 71.1921 12.2273 71.1334 10.878C71.1187 10.2767 71.1114 9.63133 71.1114 8.942C71.1114 8.25267 71.1187 7.59267 71.1334 6.962C71.1921 5.642 71.5221 4.542 72.1234 3.662C72.7394 2.76733 73.5681 2.1 74.6094 1.66C75.6654 1.22 76.8681 1 78.2174 1C79.1854 1 80.0874 1.11733 80.9234 1.352C81.7741 1.572 82.5294 1.91667 83.1894 2.386C83.8494 2.84067 84.3701 3.41267 84.7514 4.102C85.1327 4.77667 85.3307 5.56867 85.3454 6.478C85.3454 6.61 85.2941 6.72 85.1914 6.808C85.1034 6.896 84.9934 6.94 84.8614 6.94H81.1434C80.9234 6.94 80.7621 6.896 80.6594 6.808C80.5567 6.72 80.4687 6.566 80.3954 6.346C80.2047 5.71533 79.9261 5.29 79.5594 5.07C79.1927 4.85 78.7454 4.74 78.2174 4.74C77.5721 4.74 77.0587 4.916 76.6774 5.268C76.2961 5.60533 76.0907 6.20667 76.0614 7.072C76.0174 8.27467 76.0174 9.50667 76.0614 10.768C76.0907 11.6333 76.2961 12.242 76.6774 12.594C77.0587 12.9313 77.5721 13.1 78.2174 13.1C78.7454 13.1 79.1927 12.9827 79.5594 12.748C79.9407 12.5133 80.2194 12.0953 80.3954 11.494C80.4541 11.2593 80.5347 11.1053 80.6374 11.032C80.7547 10.944 80.9234 10.9 81.1434 10.9H84.8614C84.9934 10.9 85.1034 10.944 85.1914 11.032C85.2941 11.12 85.3454 11.23 85.3454 11.362C85.3307 12.2713 85.1327 13.0707 84.7514 13.76C84.3701 14.4347 83.8494 15.0067 83.1894 15.476C82.5294 15.9307 81.7741 16.2753 80.9234 16.51C80.0874 16.73 79.1854 16.84 78.2174 16.84Z" fill="#008FE0"/>
<path d="M94.0084 16.84C92.6004 16.84 91.3758 16.62 90.3344 16.18C89.3078 15.74 88.4938 15.08 87.8924 14.2C87.3058 13.3053 86.9904 12.198 86.9464 10.878C86.9318 10.262 86.9244 9.63133 86.9244 8.986C86.9244 8.326 86.9318 7.67333 86.9464 7.028C86.9904 5.72267 87.3058 4.62267 87.8924 3.728C88.4938 2.83333 89.3151 2.15867 90.3564 1.704C91.3978 1.23467 92.6151 1 94.0084 1C95.3871 1 96.5971 1.23467 97.6384 1.704C98.6798 2.15867 99.5011 2.83333 100.102 3.728C100.704 4.62267 101.019 5.72267 101.048 7.028C101.078 7.67333 101.092 8.326 101.092 8.986C101.092 9.63133 101.078 10.262 101.048 10.878C101.004 12.198 100.682 13.3053 100.08 14.2C99.4938 15.08 98.6798 15.74 97.6384 16.18C96.6118 16.62 95.4018 16.84 94.0084 16.84ZM94.0084 13.1C94.6244 13.1 95.1304 12.9167 95.5264 12.55C95.9224 12.1687 96.1278 11.5673 96.1424 10.746C96.1718 10.1153 96.1864 9.50667 96.1864 8.92C96.1864 8.31867 96.1718 7.71 96.1424 7.094C96.1278 6.55133 96.0251 6.104 95.8344 5.752C95.6584 5.4 95.4091 5.14333 95.0864 4.982C94.7784 4.82067 94.4191 4.74 94.0084 4.74C93.5978 4.74 93.2311 4.82067 92.9084 4.982C92.5858 5.14333 92.3291 5.4 92.1384 5.752C91.9624 6.104 91.8671 6.55133 91.8524 7.094C91.8378 7.71 91.8304 8.31867 91.8304 8.92C91.8304 9.50667 91.8378 10.1153 91.8524 10.746C91.8818 11.5673 92.0871 12.1687 92.4684 12.55C92.8644 12.9167 93.3778 13.1 94.0084 13.1Z" fill="#008FE0"/>
<path d="M103.921 16.62C103.774 16.62 103.642 16.5687 103.525 16.466C103.407 16.3487 103.349 16.2093 103.349 16.048V1.792C103.349 1.63067 103.407 1.49867 103.525 1.396C103.642 1.27867 103.774 1.22 103.921 1.22H106.847C107.111 1.22 107.301 1.286 107.419 1.418C107.536 1.53533 107.617 1.62333 107.661 1.682L112.193 8.964V1.792C112.193 1.63067 112.251 1.49867 112.369 1.396C112.486 1.27867 112.618 1.22 112.765 1.22H116.087C116.248 1.22 116.38 1.27867 116.483 1.396C116.6 1.49867 116.659 1.63067 116.659 1.792V16.048C116.659 16.2093 116.6 16.3487 116.483 16.466C116.38 16.5687 116.248 16.62 116.087 16.62H113.183C112.904 16.62 112.706 16.5613 112.589 16.444C112.471 16.312 112.391 16.2167 112.347 16.158L107.815 9.294V16.048C107.815 16.2093 107.756 16.3487 107.639 16.466C107.536 16.5687 107.404 16.62 107.243 16.62H103.921Z" fill="#008FE0"/>
<path d="M119.991 16.62C119.844 16.62 119.712 16.5687 119.595 16.466C119.478 16.3487 119.419 16.2093 119.419 16.048V1.792C119.419 1.63067 119.478 1.49867 119.595 1.396C119.712 1.27867 119.844 1.22 119.991 1.22H122.917C123.181 1.22 123.372 1.286 123.489 1.418C123.606 1.53533 123.687 1.62333 123.731 1.682L128.263 8.964V1.792C128.263 1.63067 128.322 1.49867 128.439 1.396C128.556 1.27867 128.688 1.22 128.835 1.22H132.157C132.318 1.22 132.45 1.27867 132.553 1.396C132.67 1.49867 132.729 1.63067 132.729 1.792V16.048C132.729 16.2093 132.67 16.3487 132.553 16.466C132.45 16.5687 132.318 16.62 132.157 16.62H129.253C128.974 16.62 128.776 16.5613 128.659 16.444C128.542 16.312 128.461 16.2167 128.417 16.158L123.885 9.294V16.048C123.885 16.2093 123.826 16.3487 123.709 16.466C123.606 16.5687 123.474 16.62 123.313 16.62H119.991Z" fill="#008FE0"/>
<path d="M136.061 16.62C135.915 16.62 135.783 16.5687 135.665 16.466C135.548 16.3487 135.489 16.2093 135.489 16.048V1.792C135.489 1.63067 135.548 1.49867 135.665 1.396C135.783 1.27867 135.915 1.22 136.061 1.22H146.841C147.003 1.22 147.142 1.27867 147.259 1.396C147.377 1.49867 147.435 1.63067 147.435 1.792V4.388C147.435 4.53467 147.377 4.66667 147.259 4.784C147.142 4.90133 147.003 4.96 146.841 4.96H140.043V7.138H146.357C146.519 7.138 146.658 7.19667 146.775 7.314C146.893 7.41667 146.951 7.54867 146.951 7.71V10.086C146.951 10.2473 146.893 10.3867 146.775 10.504C146.658 10.6067 146.519 10.658 146.357 10.658H140.043V12.88H147.017C147.179 12.88 147.318 12.9387 147.435 13.056C147.553 13.1733 147.611 13.3127 147.611 13.474V16.048C147.611 16.2093 147.553 16.3487 147.435 16.466C147.318 16.5687 147.179 16.62 147.017 16.62H136.061Z" fill="#008FE0"/>
<path d="M156.399 16.84C155.006 16.84 153.788 16.6273 152.747 16.202C151.706 15.762 150.884 15.102 150.283 14.222C149.696 13.342 149.374 12.2273 149.315 10.878C149.3 10.2767 149.293 9.63133 149.293 8.942C149.293 8.25267 149.3 7.59267 149.315 6.962C149.374 5.642 149.704 4.542 150.305 3.662C150.921 2.76733 151.75 2.1 152.791 1.66C153.847 1.22 155.05 1 156.399 1C157.367 1 158.269 1.11733 159.105 1.352C159.956 1.572 160.711 1.91667 161.371 2.386C162.031 2.84067 162.552 3.41267 162.933 4.102C163.314 4.77667 163.512 5.56867 163.527 6.478C163.527 6.61 163.476 6.72 163.373 6.808C163.285 6.896 163.175 6.94 163.043 6.94H159.325C159.105 6.94 158.944 6.896 158.841 6.808C158.738 6.72 158.65 6.566 158.577 6.346C158.386 5.71533 158.108 5.29 157.741 5.07C157.374 4.85 156.927 4.74 156.399 4.74C155.754 4.74 155.24 4.916 154.859 5.268C154.478 5.60533 154.272 6.20667 154.243 7.072C154.199 8.27467 154.199 9.50667 154.243 10.768C154.272 11.6333 154.478 12.242 154.859 12.594C155.24 12.9313 155.754 13.1 156.399 13.1C156.927 13.1 157.374 12.9827 157.741 12.748C158.122 12.5133 158.401 12.0953 158.577 11.494C158.636 11.2593 158.716 11.1053 158.819 11.032C158.936 10.944 159.105 10.9 159.325 10.9H163.043C163.175 10.9 163.285 10.944 163.373 11.032C163.476 11.12 163.527 11.23 163.527 11.362C163.512 12.2713 163.314 13.0707 162.933 13.76C162.552 14.4347 162.031 15.0067 161.371 15.476C160.711 15.9307 159.956 16.2753 159.105 16.51C158.269 16.73 157.367 16.84 156.399 16.84Z" fill="#008FE0"/>
<path d="M169.528 16.62C169.367 16.62 169.227 16.5687 169.11 16.466C169.007 16.3487 168.956 16.2093 168.956 16.048V5.312H165.172C165.011 5.312 164.871 5.26067 164.754 5.158C164.651 5.04067 164.6 4.90133 164.6 4.74V1.792C164.6 1.63067 164.651 1.49867 164.754 1.396C164.871 1.27867 165.011 1.22 165.172 1.22H177.536C177.697 1.22 177.829 1.27867 177.932 1.396C178.049 1.49867 178.108 1.63067 178.108 1.792V4.74C178.108 4.90133 178.049 5.04067 177.932 5.158C177.829 5.26067 177.697 5.312 177.536 5.312H173.752V16.048C173.752 16.2093 173.693 16.3487 173.576 16.466C173.473 16.5687 173.341 16.62 173.18 16.62H169.528Z" fill="#008FE0"/>
<path d="M180.47 16.62C180.323 16.62 180.191 16.5687 180.074 16.466C179.956 16.3487 179.898 16.2093 179.898 16.048V1.792C179.898 1.63067 179.956 1.49867 180.074 1.396C180.191 1.27867 180.323 1.22 180.47 1.22H184.21C184.371 1.22 184.503 1.27867 184.606 1.396C184.723 1.49867 184.782 1.63067 184.782 1.792V16.048C184.782 16.2093 184.723 16.3487 184.606 16.466C184.503 16.5687 184.371 16.62 184.21 16.62H180.47Z" fill="#008FE0"/>
<path d="M194.147 16.84C192.739 16.84 191.514 16.62 190.473 16.18C189.446 15.74 188.632 15.08 188.031 14.2C187.444 13.3053 187.129 12.198 187.085 10.878C187.07 10.262 187.063 9.63133 187.063 8.986C187.063 8.326 187.07 7.67333 187.085 7.028C187.129 5.72267 187.444 4.62267 188.031 3.728C188.632 2.83333 189.454 2.15867 190.495 1.704C191.536 1.23467 192.754 1 194.147 1C195.526 1 196.736 1.23467 197.777 1.704C198.818 2.15867 199.64 2.83333 200.241 3.728C200.842 4.62267 201.158 5.72267 201.187 7.028C201.216 7.67333 201.231 8.326 201.231 8.986C201.231 9.63133 201.216 10.262 201.187 10.878C201.143 12.198 200.82 13.3053 200.219 14.2C199.632 15.08 198.818 15.74 197.777 16.18C196.75 16.62 195.54 16.84 194.147 16.84ZM194.147 13.1C194.763 13.1 195.269 12.9167 195.665 12.55C196.061 12.1687 196.266 11.5673 196.281 10.746C196.31 10.1153 196.325 9.50667 196.325 8.92C196.325 8.31867 196.31 7.71 196.281 7.094C196.266 6.55133 196.164 6.104 195.973 5.752C195.797 5.4 195.548 5.14333 195.225 4.982C194.917 4.82067 194.558 4.74 194.147 4.74C193.736 4.74 193.37 4.82067 193.047 4.982C192.724 5.14333 192.468 5.4 192.277 5.752C192.101 6.104 192.006 6.55133 191.991 7.094C191.976 7.71 191.969 8.31867 191.969 8.92C191.969 9.50667 191.976 10.1153 191.991 10.746C192.02 11.5673 192.226 12.1687 192.607 12.55C193.003 12.9167 193.516 13.1 194.147 13.1Z" fill="#008FE0"/>
<path d="M204.059 16.62C203.913 16.62 203.781 16.5687 203.663 16.466C203.546 16.3487 203.487 16.2093 203.487 16.048V1.792C203.487 1.63067 203.546 1.49867 203.663 1.396C203.781 1.27867 203.913 1.22 204.059 1.22H206.985C207.249 1.22 207.44 1.286 207.557 1.418C207.675 1.53533 207.755 1.62333 207.799 1.682L212.331 8.964V1.792C212.331 1.63067 212.39 1.49867 212.507 1.396C212.625 1.27867 212.757 1.22 212.903 1.22H216.225C216.387 1.22 216.519 1.27867 216.621 1.396C216.739 1.49867 216.797 1.63067 216.797 1.792V16.048C216.797 16.2093 216.739 16.3487 216.621 16.466C216.519 16.5687 216.387 16.62 216.225 16.62H213.321C213.043 16.62 212.845 16.5613 212.727 16.444C212.61 16.312 212.529 16.2167 212.485 16.158L207.953 9.294V16.048C207.953 16.2093 207.895 16.3487 207.777 16.466C207.675 16.5687 207.543 16.62 207.381 16.62H204.059Z" fill="#008FE0"/>
<path d="M224.513 16.62C224.366 16.62 224.234 16.5687 224.117 16.466C223.999 16.3487 223.941 16.2093 223.941 16.048V1.792C223.941 1.63067 223.999 1.49867 224.117 1.396C224.234 1.27867 224.366 1.22 224.513 1.22H228.165C228.326 1.22 228.465 1.27867 228.583 1.396C228.7 1.49867 228.759 1.63067 228.759 1.792V12.704H235.117C235.278 12.704 235.417 12.7627 235.535 12.88C235.652 12.9827 235.711 13.1147 235.711 13.276V16.048C235.711 16.2093 235.652 16.3487 235.535 16.466C235.417 16.5687 235.278 16.62 235.117 16.62H224.513Z" fill="#008FE0"/>
<path d="M236.598 16.62C236.466 16.62 236.348 16.576 236.246 16.488C236.158 16.3853 236.114 16.268 236.114 16.136C236.114 16.0773 236.128 16.026 236.158 15.982L241.174 1.902C241.218 1.74067 241.313 1.58667 241.46 1.44C241.621 1.29333 241.834 1.22 242.098 1.22H246.124C246.402 1.22 246.615 1.29333 246.762 1.44C246.908 1.58667 247.004 1.74067 247.048 1.902L252.086 15.982C252.1 16.026 252.108 16.0773 252.108 16.136C252.108 16.268 252.056 16.3853 251.954 16.488C251.866 16.576 251.756 16.62 251.624 16.62H248.236C247.986 16.62 247.803 16.5613 247.686 16.444C247.568 16.3267 247.488 16.2167 247.444 16.114L246.762 14.266H241.46L240.778 16.114C240.734 16.2167 240.653 16.3267 240.536 16.444C240.433 16.5613 240.25 16.62 239.986 16.62H236.598ZM242.472 10.548H245.75L244.1 5.598L242.472 10.548Z" fill="#008FE0"/>
<path d="M254.14 16.62C253.993 16.62 253.861 16.5687 253.744 16.466C253.626 16.3487 253.568 16.2093 253.568 16.048V1.792C253.568 1.63067 253.626 1.49867 253.744 1.396C253.861 1.27867 253.993 1.22 254.14 1.22H261.158C262.492 1.22 263.585 1.396 264.436 1.748C265.286 2.1 265.917 2.606 266.328 3.266C266.738 3.926 266.944 4.74 266.944 5.708C266.944 6.20667 266.841 6.654 266.636 7.05C266.445 7.43133 266.21 7.754 265.932 8.018C265.653 8.26733 265.389 8.45067 265.14 8.568C265.712 8.81733 266.21 9.24267 266.636 9.844C267.061 10.4307 267.274 11.1053 267.274 11.868C267.274 12.8947 267.039 13.76 266.57 14.464C266.115 15.168 265.448 15.7033 264.568 16.07C263.702 16.4367 262.639 16.62 261.378 16.62H254.14ZM258.298 13.298H260.872C261.37 13.298 261.737 13.1513 261.972 12.858C262.206 12.55 262.324 12.2127 262.324 11.846C262.324 11.4647 262.199 11.1347 261.95 10.856C261.7 10.5627 261.341 10.416 260.872 10.416H258.298V13.298ZM258.298 7.182H260.652C261.121 7.182 261.466 7.05 261.686 6.786C261.906 6.522 262.016 6.214 262.016 5.862C262.016 5.51 261.906 5.202 261.686 4.938C261.466 4.674 261.121 4.542 260.652 4.542H258.298V7.182Z" fill="#008FE0"/>
<path d="M10.886 15.84C9.522 15.84 8.31933 15.6273 7.278 15.202C6.25133 14.7767 5.44467 14.1167 4.858 13.222C4.286 12.3127 4 11.1687 4 9.79V0.792C4 0.630666 4.05867 0.498666 4.176 0.396C4.29333 0.278667 4.42533 0.22 4.572 0.22H8.158C8.31933 0.22 8.45133 0.278667 8.554 0.396C8.67133 0.498666 8.73 0.630666 8.73 0.792V9.724C8.73 10.472 8.91333 11.0367 9.28 11.418C9.64667 11.7993 10.1747 11.99 10.864 11.99C11.5533 11.99 12.074 11.7993 12.426 11.418C12.7927 11.0367 12.976 10.472 12.976 9.724V0.792C12.976 0.630666 13.0347 0.498666 13.152 0.396C13.2693 0.278667 13.4087 0.22 13.57 0.22H17.134C17.2953 0.22 17.4273 0.278667 17.53 0.396C17.6473 0.498666 17.706 0.630666 17.706 0.792V9.79C17.706 11.1687 17.42 12.3127 16.848 13.222C16.276 14.1167 15.4767 14.7767 14.45 15.202C13.4233 15.6273 12.2353 15.84 10.886 15.84Z" fill="white"/>
<path d="M26.9752 15.84C25.5819 15.84 24.3646 15.6273 23.3232 15.202C22.2819 14.762 21.4606 14.102 20.8592 13.222C20.2726 12.342 19.9499 11.2273 19.8912 9.878C19.8766 9.27667 19.8692 8.63133 19.8692 7.942C19.8692 7.25267 19.8766 6.59267 19.8912 5.962C19.9499 4.642 20.2799 3.542 20.8812 2.662C21.4972 1.76733 22.3259 1.1 23.3672 0.660001C24.4232 0.22 25.6259 0 26.9752 0C27.9432 0 28.8452 0.117334 29.6812 0.352001C30.5319 0.572001 31.2872 0.916667 31.9472 1.386C32.6072 1.84067 33.1279 2.41267 33.5092 3.102C33.8906 3.77667 34.0886 4.56867 34.1032 5.478C34.1032 5.61 34.0519 5.72 33.9492 5.808C33.8612 5.896 33.7512 5.94 33.6192 5.94H29.9012C29.6812 5.94 29.5199 5.896 29.4172 5.808C29.3146 5.72 29.2266 5.566 29.1532 5.346C28.9626 4.71533 28.6839 4.29 28.3172 4.07C27.9506 3.85 27.5032 3.74 26.9752 3.74C26.3299 3.74 25.8166 3.916 25.4352 4.268C25.0539 4.60533 24.8486 5.20667 24.8192 6.072C24.7752 7.27467 24.7752 8.50667 24.8192 9.768C24.8486 10.6333 25.0539 11.242 25.4352 11.594C25.8166 11.9313 26.3299 12.1 26.9752 12.1C27.5032 12.1 27.9506 11.9827 28.3172 11.748C28.6986 11.5133 28.9772 11.0953 29.1532 10.494C29.2119 10.2593 29.2926 10.1053 29.3952 10.032C29.5126 9.944 29.6812 9.9 29.9012 9.9H33.6192C33.7512 9.9 33.8612 9.944 33.9492 10.032C34.0519 10.12 34.1032 10.23 34.1032 10.362C34.0886 11.2713 33.8906 12.0707 33.5092 12.76C33.1279 13.4347 32.6072 14.0067 31.9472 14.476C31.2872 14.9307 30.5319 15.2753 29.6812 15.51C28.8452 15.73 27.9432 15.84 26.9752 15.84Z" fill="white"/>
<path d="M36.6942 15.62C36.5476 15.62 36.4156 15.5687 36.2982 15.466C36.1809 15.3487 36.1222 15.2093 36.1222 15.048V0.792C36.1222 0.630666 36.1809 0.498666 36.2982 0.396C36.4156 0.278667 36.5476 0.22 36.6942 0.22H40.3462C40.5076 0.22 40.6469 0.278667 40.7642 0.396C40.8816 0.498666 40.9402 0.630666 40.9402 0.792V11.704H47.2982C47.4596 11.704 47.5989 11.7627 47.7162 11.88C47.8336 11.9827 47.8922 12.1147 47.8922 12.276V15.048C47.8922 15.2093 47.8336 15.3487 47.7162 15.466C47.5989 15.5687 47.4596 15.62 47.2982 15.62H36.6942Z" fill="white"/>
<path d="M48.7795 15.62C48.6475 15.62 48.5301 15.576 48.4275 15.488C48.3395 15.3853 48.2955 15.268 48.2955 15.136C48.2955 15.0773 48.3101 15.026 48.3395 14.982L53.3555 0.902C53.3995 0.740667 53.4948 0.586667 53.6415 0.44C53.8028 0.293333 54.0155 0.22 54.2795 0.22H58.3055C58.5841 0.22 58.7968 0.293333 58.9435 0.44C59.0901 0.586667 59.1855 0.740667 59.2295 0.902L64.2675 14.982C64.2821 15.026 64.2895 15.0773 64.2895 15.136C64.2895 15.268 64.2381 15.3853 64.1355 15.488C64.0475 15.576 63.9375 15.62 63.8055 15.62H60.4175C60.1681 15.62 59.9848 15.5613 59.8675 15.444C59.7501 15.3267 59.6695 15.2167 59.6255 15.114L58.9435 13.266H53.6415L52.9595 15.114C52.9155 15.2167 52.8348 15.3267 52.7175 15.444C52.6148 15.5613 52.4315 15.62 52.1675 15.62H48.7795ZM54.6535 9.548H57.9315L56.2815 4.598L54.6535 9.548Z" fill="white"/>
<path d="M76.2174 15.84C74.8241 15.84 73.6067 15.6273 72.5654 15.202C71.5241 14.762 70.7027 14.102 70.1014 13.222C69.5147 12.342 69.1921 11.2273 69.1334 9.878C69.1187 9.27667 69.1114 8.63133 69.1114 7.942C69.1114 7.25267 69.1187 6.59267 69.1334 5.962C69.1921 4.642 69.5221 3.542 70.1234 2.662C70.7394 1.76733 71.5681 1.1 72.6094 0.660001C73.6654 0.22 74.8681 0 76.2174 0C77.1854 0 78.0874 0.117334 78.9234 0.352001C79.7741 0.572001 80.5294 0.916667 81.1894 1.386C81.8494 1.84067 82.3701 2.41267 82.7514 3.102C83.1327 3.77667 83.3307 4.56867 83.3454 5.478C83.3454 5.61 83.2941 5.72 83.1914 5.808C83.1034 5.896 82.9934 5.94 82.8614 5.94H79.1434C78.9234 5.94 78.7621 5.896 78.6594 5.808C78.5567 5.72 78.4687 5.566 78.3954 5.346C78.2047 4.71533 77.9261 4.29 77.5594 4.07C77.1927 3.85 76.7454 3.74 76.2174 3.74C75.5721 3.74 75.0587 3.916 74.6774 4.268C74.2961 4.60533 74.0907 5.20667 74.0614 6.072C74.0174 7.27467 74.0174 8.50667 74.0614 9.768C74.0907 10.6333 74.2961 11.242 74.6774 11.594C75.0587 11.9313 75.5721 12.1 76.2174 12.1C76.7454 12.1 77.1927 11.9827 77.5594 11.748C77.9407 11.5133 78.2194 11.0953 78.3954 10.494C78.4541 10.2593 78.5347 10.1053 78.6374 10.032C78.7547 9.944 78.9234 9.9 79.1434 9.9H82.8614C82.9934 9.9 83.1034 9.944 83.1914 10.032C83.2941 10.12 83.3454 10.23 83.3454 10.362C83.3307 11.2713 83.1327 12.0707 82.7514 12.76C82.3701 13.4347 81.8494 14.0067 81.1894 14.476C80.5294 14.9307 79.7741 15.2753 78.9234 15.51C78.0874 15.73 77.1854 15.84 76.2174 15.84Z" fill="white"/>
<path d="M92.0084 15.84C90.6004 15.84 89.3758 15.62 88.3344 15.18C87.3078 14.74 86.4938 14.08 85.8924 13.2C85.3058 12.3053 84.9904 11.198 84.9464 9.878C84.9318 9.262 84.9244 8.63133 84.9244 7.986C84.9244 7.326 84.9318 6.67333 84.9464 6.028C84.9904 4.72267 85.3058 3.62267 85.8924 2.728C86.4938 1.83333 87.3151 1.15867 88.3564 0.704C89.3978 0.234667 90.6151 0 92.0084 0C93.3871 0 94.5971 0.234667 95.6384 0.704C96.6798 1.15867 97.5011 1.83333 98.1024 2.728C98.7038 3.62267 99.0191 4.72267 99.0484 6.028C99.0778 6.67333 99.0924 7.326 99.0924 7.986C99.0924 8.63133 99.0778 9.262 99.0484 9.878C99.0044 11.198 98.6818 12.3053 98.0804 13.2C97.4938 14.08 96.6798 14.74 95.6384 15.18C94.6118 15.62 93.4018 15.84 92.0084 15.84ZM92.0084 12.1C92.6244 12.1 93.1304 11.9167 93.5264 11.55C93.9224 11.1687 94.1278 10.5673 94.1424 9.746C94.1718 9.11533 94.1864 8.50667 94.1864 7.92C94.1864 7.31867 94.1718 6.71 94.1424 6.094C94.1278 5.55133 94.0251 5.104 93.8344 4.752C93.6584 4.4 93.4091 4.14333 93.0864 3.982C92.7784 3.82067 92.4191 3.74 92.0084 3.74C91.5978 3.74 91.2311 3.82067 90.9084 3.982C90.5858 4.14333 90.3291 4.4 90.1384 4.752C89.9624 5.104 89.8671 5.55133 89.8524 6.094C89.8378 6.71 89.8304 7.31867 89.8304 7.92C89.8304 8.50667 89.8378 9.11533 89.8524 9.746C89.8818 10.5673 90.0871 11.1687 90.4684 11.55C90.8644 11.9167 91.3778 12.1 92.0084 12.1Z" fill="white"/>
<path d="M101.921 15.62C101.774 15.62 101.642 15.5687 101.525 15.466C101.407 15.3487 101.349 15.2093 101.349 15.048V0.792C101.349 0.630666 101.407 0.498666 101.525 0.396C101.642 0.278667 101.774 0.22 101.921 0.22H104.847C105.111 0.22 105.301 0.286 105.419 0.418C105.536 0.535333 105.617 0.623334 105.661 0.682L110.193 7.964V0.792C110.193 0.630666 110.251 0.498666 110.369 0.396C110.486 0.278667 110.618 0.22 110.765 0.22H114.087C114.248 0.22 114.38 0.278667 114.483 0.396C114.6 0.498666 114.659 0.630666 114.659 0.792V15.048C114.659 15.2093 114.6 15.3487 114.483 15.466C114.38 15.5687 114.248 15.62 114.087 15.62H111.183C110.904 15.62 110.706 15.5613 110.589 15.444C110.471 15.312 110.391 15.2167 110.347 15.158L105.815 8.294V15.048C105.815 15.2093 105.756 15.3487 105.639 15.466C105.536 15.5687 105.404 15.62 105.243 15.62H101.921Z" fill="white"/>
<path d="M117.991 15.62C117.844 15.62 117.712 15.5687 117.595 15.466C117.478 15.3487 117.419 15.2093 117.419 15.048V0.792C117.419 0.630666 117.478 0.498666 117.595 0.396C117.712 0.278667 117.844 0.22 117.991 0.22H120.917C121.181 0.22 121.372 0.286 121.489 0.418C121.606 0.535333 121.687 0.623334 121.731 0.682L126.263 7.964V0.792C126.263 0.630666 126.322 0.498666 126.439 0.396C126.556 0.278667 126.688 0.22 126.835 0.22H130.157C130.318 0.22 130.45 0.278667 130.553 0.396C130.67 0.498666 130.729 0.630666 130.729 0.792V15.048C130.729 15.2093 130.67 15.3487 130.553 15.466C130.45 15.5687 130.318 15.62 130.157 15.62H127.253C126.974 15.62 126.776 15.5613 126.659 15.444C126.542 15.312 126.461 15.2167 126.417 15.158L121.885 8.294V15.048C121.885 15.2093 121.826 15.3487 121.709 15.466C121.606 15.5687 121.474 15.62 121.313 15.62H117.991Z" fill="white"/>
<path d="M134.061 15.62C133.915 15.62 133.783 15.5687 133.665 15.466C133.548 15.3487 133.489 15.2093 133.489 15.048V0.792C133.489 0.630666 133.548 0.498666 133.665 0.396C133.783 0.278667 133.915 0.22 134.061 0.22H144.841C145.003 0.22 145.142 0.278667 145.259 0.396C145.377 0.498666 145.435 0.630666 145.435 0.792V3.388C145.435 3.53467 145.377 3.66667 145.259 3.784C145.142 3.90133 145.003 3.96 144.841 3.96H138.043V6.138H144.357C144.519 6.138 144.658 6.19667 144.775 6.314C144.893 6.41667 144.951 6.54867 144.951 6.71V9.086C144.951 9.24733 144.893 9.38667 144.775 9.504C144.658 9.60667 144.519 9.658 144.357 9.658H138.043V11.88H145.017C145.179 11.88 145.318 11.9387 145.435 12.056C145.553 12.1733 145.611 12.3127 145.611 12.474V15.048C145.611 15.2093 145.553 15.3487 145.435 15.466C145.318 15.5687 145.179 15.62 145.017 15.62H134.061Z" fill="white"/>
<path d="M154.399 15.84C153.006 15.84 151.788 15.6273 150.747 15.202C149.706 14.762 148.884 14.102 148.283 13.222C147.696 12.342 147.374 11.2273 147.315 9.878C147.3 9.27667 147.293 8.63133 147.293 7.942C147.293 7.25267 147.3 6.59267 147.315 5.962C147.374 4.642 147.704 3.542 148.305 2.662C148.921 1.76733 149.75 1.1 150.791 0.660001C151.847 0.22 153.05 0 154.399 0C155.367 0 156.269 0.117334 157.105 0.352001C157.956 0.572001 158.711 0.916667 159.371 1.386C160.031 1.84067 160.552 2.41267 160.933 3.102C161.314 3.77667 161.512 4.56867 161.527 5.478C161.527 5.61 161.476 5.72 161.373 5.808C161.285 5.896 161.175 5.94 161.043 5.94H157.325C157.105 5.94 156.944 5.896 156.841 5.808C156.738 5.72 156.65 5.566 156.577 5.346C156.386 4.71533 156.108 4.29 155.741 4.07C155.374 3.85 154.927 3.74 154.399 3.74C153.754 3.74 153.24 3.916 152.859 4.268C152.478 4.60533 152.272 5.20667 152.243 6.072C152.199 7.27467 152.199 8.50667 152.243 9.768C152.272 10.6333 152.478 11.242 152.859 11.594C153.24 11.9313 153.754 12.1 154.399 12.1C154.927 12.1 155.374 11.9827 155.741 11.748C156.122 11.5133 156.401 11.0953 156.577 10.494C156.636 10.2593 156.716 10.1053 156.819 10.032C156.936 9.944 157.105 9.9 157.325 9.9H161.043C161.175 9.9 161.285 9.944 161.373 10.032C161.476 10.12 161.527 10.23 161.527 10.362C161.512 11.2713 161.314 12.0707 160.933 12.76C160.552 13.4347 160.031 14.0067 159.371 14.476C158.711 14.9307 157.956 15.2753 157.105 15.51C156.269 15.73 155.367 15.84 154.399 15.84Z" fill="white"/>
<path d="M167.528 15.62C167.367 15.62 167.227 15.5687 167.11 15.466C167.007 15.3487 166.956 15.2093 166.956 15.048V4.312H163.172C163.011 4.312 162.871 4.26067 162.754 4.158C162.651 4.04067 162.6 3.90133 162.6 3.74V0.792C162.6 0.630666 162.651 0.498666 162.754 0.396C162.871 0.278667 163.011 0.22 163.172 0.22H175.536C175.697 0.22 175.829 0.278667 175.932 0.396C176.049 0.498666 176.108 0.630666 176.108 0.792V3.74C176.108 3.90133 176.049 4.04067 175.932 4.158C175.829 4.26067 175.697 4.312 175.536 4.312H171.752V15.048C171.752 15.2093 171.693 15.3487 171.576 15.466C171.473 15.5687 171.341 15.62 171.18 15.62H167.528Z" fill="white"/>
<path d="M178.47 15.62C178.323 15.62 178.191 15.5687 178.074 15.466C177.956 15.3487 177.898 15.2093 177.898 15.048V0.792C177.898 0.630666 177.956 0.498666 178.074 0.396C178.191 0.278667 178.323 0.22 178.47 0.22H182.21C182.371 0.22 182.503 0.278667 182.606 0.396C182.723 0.498666 182.782 0.630666 182.782 0.792V15.048C182.782 15.2093 182.723 15.3487 182.606 15.466C182.503 15.5687 182.371 15.62 182.21 15.62H178.47Z" fill="white"/>
<path d="M192.147 15.84C190.739 15.84 189.514 15.62 188.473 15.18C187.446 14.74 186.632 14.08 186.031 13.2C185.444 12.3053 185.129 11.198 185.085 9.878C185.07 9.262 185.063 8.63133 185.063 7.986C185.063 7.326 185.07 6.67333 185.085 6.028C185.129 4.72267 185.444 3.62267 186.031 2.728C186.632 1.83333 187.454 1.15867 188.495 0.704C189.536 0.234667 190.754 0 192.147 0C193.526 0 194.736 0.234667 195.777 0.704C196.818 1.15867 197.64 1.83333 198.241 2.728C198.842 3.62267 199.158 4.72267 199.187 6.028C199.216 6.67333 199.231 7.326 199.231 7.986C199.231 8.63133 199.216 9.262 199.187 9.878C199.143 11.198 198.82 12.3053 198.219 13.2C197.632 14.08 196.818 14.74 195.777 15.18C194.75 15.62 193.54 15.84 192.147 15.84ZM192.147 12.1C192.763 12.1 193.269 11.9167 193.665 11.55C194.061 11.1687 194.266 10.5673 194.281 9.746C194.31 9.11533 194.325 8.50667 194.325 7.92C194.325 7.31867 194.31 6.71 194.281 6.094C194.266 5.55133 194.164 5.104 193.973 4.752C193.797 4.4 193.548 4.14333 193.225 3.982C192.917 3.82067 192.558 3.74 192.147 3.74C191.736 3.74 191.37 3.82067 191.047 3.982C190.724 4.14333 190.468 4.4 190.277 4.752C190.101 5.104 190.006 5.55133 189.991 6.094C189.976 6.71 189.969 7.31867 189.969 7.92C189.969 8.50667 189.976 9.11533 189.991 9.746C190.02 10.5673 190.226 11.1687 190.607 11.55C191.003 11.9167 191.516 12.1 192.147 12.1Z" fill="white"/>
<path d="M202.059 15.62C201.913 15.62 201.781 15.5687 201.663 15.466C201.546 15.3487 201.487 15.2093 201.487 15.048V0.792C201.487 0.630666 201.546 0.498666 201.663 0.396C201.781 0.278667 201.913 0.22 202.059 0.22H204.985C205.249 0.22 205.44 0.286 205.557 0.418C205.675 0.535333 205.755 0.623334 205.799 0.682L210.331 7.964V0.792C210.331 0.630666 210.39 0.498666 210.507 0.396C210.625 0.278667 210.757 0.22 210.903 0.22H214.225C214.387 0.22 214.519 0.278667 214.621 0.396C214.739 0.498666 214.797 0.630666 214.797 0.792V15.048C214.797 15.2093 214.739 15.3487 214.621 15.466C214.519 15.5687 214.387 15.62 214.225 15.62H211.321C211.043 15.62 210.845 15.5613 210.727 15.444C210.61 15.312 210.529 15.2167 210.485 15.158L205.953 8.294V15.048C205.953 15.2093 205.895 15.3487 205.777 15.466C205.675 15.5687 205.543 15.62 205.381 15.62H202.059Z" fill="white"/>
<path d="M222.513 15.62C222.366 15.62 222.234 15.5687 222.117 15.466C221.999 15.3487 221.941 15.2093 221.941 15.048V0.792C221.941 0.630666 221.999 0.498666 222.117 0.396C222.234 0.278667 222.366 0.22 222.513 0.22H226.165C226.326 0.22 226.465 0.278667 226.583 0.396C226.7 0.498666 226.759 0.630666 226.759 0.792V11.704H233.117C233.278 11.704 233.417 11.7627 233.535 11.88C233.652 11.9827 233.711 12.1147 233.711 12.276V15.048C233.711 15.2093 233.652 15.3487 233.535 15.466C233.417 15.5687 233.278 15.62 233.117 15.62H222.513Z" fill="white"/>
<path d="M234.598 15.62C234.466 15.62 234.348 15.576 234.246 15.488C234.158 15.3853 234.114 15.268 234.114 15.136C234.114 15.0773 234.128 15.026 234.158 14.982L239.174 0.902C239.218 0.740667 239.313 0.586667 239.46 0.44C239.621 0.293333 239.834 0.22 240.098 0.22H244.124C244.402 0.22 244.615 0.293333 244.762 0.44C244.908 0.586667 245.004 0.740667 245.048 0.902L250.086 14.982C250.1 15.026 250.108 15.0773 250.108 15.136C250.108 15.268 250.056 15.3853 249.954 15.488C249.866 15.576 249.756 15.62 249.624 15.62H246.236C245.986 15.62 245.803 15.5613 245.686 15.444C245.568 15.3267 245.488 15.2167 245.444 15.114L244.762 13.266H239.46L238.778 15.114C238.734 15.2167 238.653 15.3267 238.536 15.444C238.433 15.5613 238.25 15.62 237.986 15.62H234.598ZM240.472 9.548H243.75L242.1 4.598L240.472 9.548Z" fill="white"/>
<path d="M252.14 15.62C251.993 15.62 251.861 15.5687 251.744 15.466C251.626 15.3487 251.568 15.2093 251.568 15.048V0.792C251.568 0.630666 251.626 0.498666 251.744 0.396C251.861 0.278667 251.993 0.22 252.14 0.22H259.158C260.492 0.22 261.585 0.396 262.436 0.748C263.286 1.1 263.917 1.606 264.328 2.266C264.738 2.926 264.944 3.74 264.944 4.708C264.944 5.20667 264.841 5.654 264.636 6.05C264.445 6.43133 264.21 6.754 263.932 7.018C263.653 7.26733 263.389 7.45067 263.14 7.568C263.712 7.81733 264.21 8.24267 264.636 8.844C265.061 9.43067 265.274 10.1053 265.274 10.868C265.274 11.8947 265.039 12.76 264.57 13.464C264.115 14.168 263.448 14.7033 262.568 15.07C261.702 15.4367 260.639 15.62 259.378 15.62H252.14ZM256.298 12.298H258.872C259.37 12.298 259.737 12.1513 259.972 11.858C260.206 11.55 260.324 11.2127 260.324 10.846C260.324 10.4647 260.199 10.1347 259.95 9.856C259.7 9.56267 259.341 9.416 258.872 9.416H256.298V12.298ZM256.298 6.182H258.652C259.121 6.182 259.466 6.05 259.686 5.786C259.906 5.522 260.016 5.214 260.016 4.862C260.016 4.51 259.906 4.202 259.686 3.938C259.466 3.674 259.121 3.542 258.652 3.542H256.298V6.182Z" fill="white"/>
</g>
<defs>
<filter id="filter0_d_58_37" x="0" y="0" width="278.626" height="25.8398" filterUnits="userSpaceOnUse" color-interpolation-filters="sRGB">
<feFlood flood-opacity="0" result="BackgroundImageFix"/>
<feColorMatrix in="SourceAlpha" type="matrix" values="0 0 0 0 0 0 0 0 0 0 0 0 0 0 0 0 0 0 127 0" result="hardAlpha"/>
<feOffset dy="4"/>
<feGaussianBlur stdDeviation="2"/>
<feComposite in2="hardAlpha" operator="out"/>
<feColorMatrix type="matrix" values="0 0 0 0 0 0 0 0 0 0 0 0 0 0 0 0 0 0 0.25 0"/>
<feBlend mode="normal" in2="BackgroundImageFix" result="effect1_dropShadow_58_37"/>
<feBlend mode="normal" in="SourceGraphic" in2="effect1_dropShadow_58_37" result="shape"/>
</filter>
</defs>
</svg>
