<svg width="185" height="27" viewBox="0 0 185 27" fill="none" xmlns="http://www.w3.org/2000/svg">
<g filter="url(#filter0_d_58_39)">
<path d="M7.57202 18.62C7.42535 18.62 7.29336 18.5687 7.17603 18.466C7.05869 18.3487 7 18.2093 7 18.048V3.792C7 3.63067 7.05869 3.49867 7.17603 3.396C7.29336 3.27867 7.42535 3.22 7.57202 3.22H13.996C15.272 3.22 16.3794 3.41067 17.318 3.792C18.2714 4.17333 19.012 4.75267 19.54 5.53C20.068 6.30733 20.332 7.28267 20.332 8.456C20.332 9.62933 20.068 10.5973 19.54 11.36C19.012 12.108 18.2714 12.658 17.318 13.01C16.3794 13.362 15.272 13.538 13.996 13.538H11.906V18.048C11.906 18.2093 11.8473 18.3487 11.73 18.466C11.6273 18.5687 11.4953 18.62 11.334 18.62H7.57202ZM11.818 9.996H13.886C14.3113 9.996 14.6707 9.87133 14.964 9.622C15.272 9.358 15.426 8.95467 15.426 8.412C15.426 8.00133 15.3087 7.62733 15.074 7.29C14.8393 6.95267 14.4434 6.784 13.886 6.784H11.818V9.996Z" fill="#F0B114"/>
<path d="M28.8549 18.84C27.4469 18.84 26.2223 18.62 25.1809 18.18C24.1543 17.74 23.3403 17.08 22.739 16.2C22.1523 15.3053 21.8369 14.198 21.7929 12.878C21.7783 12.262 21.7709 11.6313 21.7709 10.986C21.7709 10.326 21.7783 9.67333 21.7929 9.028C21.8369 7.72267 22.1523 6.62267 22.739 5.728C23.3403 4.83333 24.1616 4.15867 25.2029 3.704C26.2443 3.23467 27.4616 3 28.8549 3C30.2336 3 31.4436 3.23467 32.485 3.704C33.5263 4.15867 34.3476 4.83333 34.9489 5.728C35.5503 6.62267 35.8656 7.72267 35.895 9.028C35.9243 9.67333 35.9389 10.326 35.9389 10.986C35.9389 11.6313 35.9243 12.262 35.895 12.878C35.851 14.198 35.5283 15.3053 34.9269 16.2C34.3403 17.08 33.5263 17.74 32.485 18.18C31.4583 18.62 30.2483 18.84 28.8549 18.84ZM28.8549 15.1C29.4709 15.1 29.977 14.9167 30.373 14.55C30.769 14.1687 30.9743 13.5673 30.989 12.746C31.0183 12.1153 31.033 11.5067 31.033 10.92C31.033 10.3187 31.0183 9.71 30.989 9.094C30.9743 8.55133 30.8716 8.104 30.6809 7.752C30.5049 7.4 30.2556 7.14333 29.933 6.982C29.625 6.82067 29.2656 6.74 28.8549 6.74C28.4443 6.74 28.0776 6.82067 27.7549 6.982C27.4323 7.14333 27.1756 7.4 26.985 7.752C26.809 8.104 26.7136 8.55133 26.6989 9.094C26.6843 9.71 26.6769 10.3187 26.6769 10.92C26.6769 11.5067 26.6843 12.1153 26.6989 12.746C26.7283 13.5673 26.9336 14.1687 27.3149 14.55C27.7109 14.9167 28.2243 15.1 28.8549 15.1Z" fill="#F0B114"/>
<path d="M38.7673 18.62C38.6207 18.62 38.4887 18.5687 38.3713 18.466C38.254 18.3487 38.1953 18.2093 38.1953 18.048V3.792C38.1953 3.63067 38.254 3.49867 38.3713 3.396C38.4887 3.27867 38.6207 3.22 38.7673 3.22H42.2653C42.4267 3.22 42.5586 3.27867 42.6613 3.396C42.7786 3.49867 42.8373 3.63067 42.8373 3.792V8.412L46.1153 3.682C46.1887 3.57933 46.2913 3.47667 46.4233 3.374C46.5553 3.27133 46.7387 3.22 46.9733 3.22H50.9993C51.1313 3.22 51.2413 3.27133 51.3293 3.374C51.432 3.462 51.4833 3.572 51.4833 3.704C51.4833 3.792 51.454 3.87267 51.3953 3.946L46.7753 10.59L51.7913 17.894C51.85 17.9527 51.8793 18.0333 51.8793 18.136C51.8793 18.268 51.828 18.3853 51.7253 18.488C51.6373 18.576 51.5273 18.62 51.3953 18.62H47.2373C46.9587 18.62 46.746 18.554 46.5993 18.422C46.4673 18.29 46.3867 18.1947 46.3573 18.136L42.8373 13.032V18.048C42.8373 18.2093 42.7786 18.3487 42.6613 18.466C42.5586 18.5687 42.4267 18.62 42.2653 18.62H38.7673Z" fill="#F0B114"/>
<path d="M53.9353 18.62C53.7886 18.62 53.6566 18.5687 53.5393 18.466C53.422 18.3487 53.3633 18.2093 53.3633 18.048V3.792C53.3633 3.63067 53.422 3.49867 53.5393 3.396C53.6566 3.27867 53.7886 3.22 53.9353 3.22H64.7153C64.8766 3.22 65.016 3.27867 65.1333 3.396C65.2506 3.49867 65.3093 3.63067 65.3093 3.792V6.388C65.3093 6.53467 65.2506 6.66667 65.1333 6.784C65.016 6.90133 64.8766 6.96 64.7153 6.96H57.9173V9.138H64.2313C64.3926 9.138 64.532 9.19667 64.6493 9.314C64.7666 9.41667 64.8253 9.54867 64.8253 9.71V12.086C64.8253 12.2473 64.7666 12.3867 64.6493 12.504C64.532 12.6067 64.3926 12.658 64.2313 12.658H57.9173V14.88H64.8913C65.0526 14.88 65.192 14.9387 65.3093 15.056C65.4266 15.1733 65.4853 15.3127 65.4853 15.474V18.048C65.4853 18.2093 65.4266 18.3487 65.3093 18.466C65.192 18.5687 65.0526 18.62 64.8913 18.62H53.9353Z" fill="#F0B114"/>
<path d="M68.3083 18.62C68.1617 18.62 68.0297 18.5687 67.9124 18.466C67.795 18.3487 67.7363 18.2093 67.7363 18.048V3.792C67.7363 3.63067 67.795 3.49867 67.9124 3.396C68.0297 3.27867 68.1617 3.22 68.3083 3.22H74.5783C76.573 3.22 78.135 3.67467 79.2643 4.584C80.4083 5.49333 80.9803 6.762 80.9803 8.39C80.9803 9.41667 80.7457 10.2893 80.2763 11.008C79.807 11.7267 79.191 12.2913 78.4283 12.702L81.2883 17.894C81.3323 17.982 81.3543 18.0627 81.3543 18.136C81.3543 18.268 81.3104 18.3853 81.2224 18.488C81.1344 18.576 81.0243 18.62 80.8923 18.62H77.1743C76.8957 18.62 76.683 18.554 76.5363 18.422C76.3897 18.2753 76.2943 18.1433 76.2503 18.026L74.0504 13.494H72.4663V18.048C72.4663 18.2093 72.4077 18.3487 72.2903 18.466C72.1877 18.5687 72.0557 18.62 71.8943 18.62H68.3083ZM72.4663 9.864H74.5563C75.0697 9.864 75.451 9.72467 75.7003 9.446C75.9497 9.15267 76.0743 8.79333 76.0743 8.368C76.0743 7.928 75.9497 7.554 75.7003 7.246C75.4657 6.938 75.0843 6.784 74.5563 6.784H72.4663V9.864Z" fill="#F0B114"/>
<path d="M86.3232 18.62C86.1912 18.62 86.0739 18.576 85.9713 18.488C85.8833 18.3853 85.8392 18.268 85.8392 18.136C85.8392 18.0773 85.8539 18.026 85.8832 17.982L90.8992 3.902C90.9432 3.74067 91.0386 3.58667 91.1852 3.44C91.3466 3.29333 91.5592 3.22 91.8232 3.22H95.8492C96.1279 3.22 96.3406 3.29333 96.4872 3.44C96.6339 3.58667 96.7293 3.74067 96.7733 3.902L101.811 17.982C101.826 18.026 101.833 18.0773 101.833 18.136C101.833 18.268 101.782 18.3853 101.679 18.488C101.591 18.576 101.481 18.62 101.349 18.62H97.9612C97.7119 18.62 97.5286 18.5613 97.4113 18.444C97.2939 18.3267 97.2132 18.2167 97.1693 18.114L96.4872 16.266H91.1852L90.5032 18.114C90.4592 18.2167 90.3786 18.3267 90.2612 18.444C90.1586 18.5613 89.9752 18.62 89.7112 18.62H86.3232ZM92.1972 12.548H95.4753L93.8253 7.598L92.1972 12.548Z" fill="#F0B114"/>
<path d="M105.728 18.62C105.567 18.62 105.427 18.5687 105.31 18.466C105.207 18.3487 105.156 18.2093 105.156 18.048V7.312H101.372C101.211 7.312 101.071 7.26067 100.954 7.158C100.851 7.04067 100.8 6.90133 100.8 6.74V3.792C100.8 3.63067 100.851 3.49867 100.954 3.396C101.071 3.27867 101.211 3.22 101.372 3.22H113.736C113.897 3.22 114.029 3.27867 114.132 3.396C114.249 3.49867 114.308 3.63067 114.308 3.792V6.74C114.308 6.90133 114.249 7.04067 114.132 7.158C114.029 7.26067 113.897 7.312 113.736 7.312H109.952V18.048C109.952 18.2093 109.893 18.3487 109.776 18.466C109.673 18.5687 109.541 18.62 109.38 18.62H105.728Z" fill="#F0B114"/>
<path d="M126.74 18.84C125.376 18.84 124.174 18.6273 123.132 18.202C122.106 17.7767 121.299 17.1167 120.712 16.222C120.14 15.3127 119.854 14.1687 119.854 12.79V3.792C119.854 3.63067 119.913 3.49867 120.03 3.396C120.148 3.27867 120.28 3.22 120.426 3.22H124.012C124.174 3.22 124.306 3.27867 124.408 3.396C124.526 3.49867 124.584 3.63067 124.584 3.792V12.724C124.584 13.472 124.768 14.0367 125.134 14.418C125.501 14.7993 126.029 14.99 126.718 14.99C127.408 14.99 127.928 14.7993 128.28 14.418C128.647 14.0367 128.83 13.472 128.83 12.724V3.792C128.83 3.63067 128.889 3.49867 129.006 3.396C129.124 3.27867 129.263 3.22 129.424 3.22H132.988C133.15 3.22 133.282 3.27867 133.384 3.396C133.502 3.49867 133.56 3.63067 133.56 3.792V12.79C133.56 14.1687 133.274 15.3127 132.702 16.222C132.13 17.1167 131.331 17.7767 130.304 18.202C129.278 18.6273 128.09 18.84 126.74 18.84Z" fill="#F0B114"/>
<path d="M142.83 18.84C141.436 18.84 140.219 18.6273 139.178 18.202C138.136 17.762 137.315 17.102 136.714 16.222C136.127 15.342 135.804 14.2273 135.746 12.878C135.731 12.2767 135.724 11.6313 135.724 10.942C135.724 10.2527 135.731 9.59267 135.746 8.962C135.804 7.642 136.134 6.542 136.736 5.662C137.352 4.76733 138.18 4.1 139.222 3.66C140.278 3.22 141.48 3 142.83 3C143.798 3 144.7 3.11733 145.536 3.352C146.386 3.572 147.142 3.91667 147.802 4.386C148.462 4.84067 148.982 5.41267 149.364 6.102C149.745 6.77667 149.943 7.56867 149.958 8.478C149.958 8.61 149.906 8.72 149.804 8.808C149.716 8.896 149.606 8.94 149.474 8.94H145.756C145.536 8.94 145.374 8.896 145.272 8.808C145.169 8.72 145.081 8.566 145.008 8.346C144.817 7.71533 144.538 7.29 144.172 7.07C143.805 6.85 143.358 6.74 142.83 6.74C142.184 6.74 141.671 6.916 141.29 7.268C140.908 7.60533 140.703 8.20667 140.674 9.072C140.63 10.2747 140.63 11.5067 140.674 12.768C140.703 13.6333 140.908 14.242 141.29 14.594C141.671 14.9313 142.184 15.1 142.83 15.1C143.358 15.1 143.805 14.9827 144.172 14.748C144.553 14.5133 144.832 14.0953 145.008 13.494C145.066 13.2593 145.147 13.1053 145.25 13.032C145.367 12.944 145.536 12.9 145.756 12.9H149.474C149.606 12.9 149.716 12.944 149.804 13.032C149.906 13.12 149.958 13.23 149.958 13.362C149.943 14.2713 149.745 15.0707 149.364 15.76C148.982 16.4347 148.462 17.0067 147.802 17.476C147.142 17.9307 146.386 18.2753 145.536 18.51C144.7 18.73 143.798 18.84 142.83 18.84Z" fill="#F0B114"/>
<path d="M158.071 18.84C156.531 18.84 155.247 18.6273 154.221 18.202C153.209 17.762 152.446 17.1973 151.933 16.508C151.434 15.804 151.17 15.0633 151.141 14.286C151.141 14.154 151.185 14.044 151.273 13.956C151.361 13.868 151.471 13.824 151.603 13.824H155.101C155.306 13.824 155.467 13.8607 155.585 13.934C155.702 13.9927 155.827 14.0807 155.959 14.198C156.091 14.3593 156.245 14.5133 156.421 14.66C156.597 14.792 156.824 14.902 157.103 14.99C157.381 15.0633 157.704 15.1 158.071 15.1C158.745 15.1 159.266 15.012 159.633 14.836C159.999 14.6453 160.183 14.3887 160.183 14.066C160.183 13.8167 160.08 13.6113 159.875 13.45C159.684 13.2887 159.354 13.142 158.885 13.01C158.415 12.878 157.777 12.7387 156.971 12.592C155.841 12.4013 154.866 12.1227 154.045 11.756C153.223 11.3747 152.593 10.8687 152.153 10.238C151.727 9.59267 151.515 8.80067 151.515 7.862C151.515 6.90867 151.779 6.06533 152.307 5.332C152.849 4.59867 153.597 4.02667 154.551 3.616C155.519 3.20533 156.641 3 157.917 3C158.973 3 159.904 3.13933 160.711 3.418C161.532 3.69667 162.221 4.06333 162.779 4.518C163.336 4.958 163.761 5.43467 164.055 5.948C164.348 6.46133 164.502 6.95267 164.517 7.422C164.517 7.554 164.465 7.67133 164.363 7.774C164.275 7.862 164.172 7.906 164.055 7.906H160.381C160.205 7.906 160.051 7.87667 159.919 7.818C159.801 7.75933 159.691 7.664 159.589 7.532C159.515 7.32667 159.332 7.14333 159.039 6.982C158.745 6.82067 158.371 6.74 157.917 6.74C157.418 6.74 157.037 6.828 156.773 7.004C156.509 7.16533 156.377 7.40733 156.377 7.73C156.377 7.95 156.457 8.14067 156.619 8.302C156.78 8.46333 157.066 8.61 157.477 8.742C157.887 8.85933 158.459 8.99133 159.193 9.138C160.586 9.34333 161.708 9.63667 162.559 10.018C163.424 10.3993 164.055 10.898 164.451 11.514C164.847 12.13 165.045 12.9 165.045 13.824C165.045 14.8653 164.744 15.76 164.143 16.508C163.541 17.256 162.713 17.8353 161.657 18.246C160.615 18.642 159.42 18.84 158.071 18.84Z" fill="#F0B114"/>
<path d="M167.502 18.62C167.355 18.62 167.223 18.5687 167.106 18.466C166.988 18.3487 166.93 18.2093 166.93 18.048V3.792C166.93 3.63067 166.988 3.49867 167.106 3.396C167.223 3.27867 167.355 3.22 167.502 3.22H174.52C175.854 3.22 176.947 3.396 177.798 3.748C178.648 4.1 179.279 4.606 179.69 5.266C180.1 5.926 180.306 6.74 180.306 7.708C180.306 8.20667 180.203 8.654 179.998 9.05C179.807 9.43133 179.572 9.754 179.294 10.018C179.015 10.2673 178.751 10.4507 178.502 10.568C179.074 10.8173 179.572 11.2427 179.998 11.844C180.423 12.4307 180.636 13.1053 180.636 13.868C180.636 14.8947 180.401 15.76 179.932 16.464C179.477 17.168 178.81 17.7033 177.93 18.07C177.064 18.4367 176.001 18.62 174.74 18.62H167.502ZM171.66 15.298H174.234C174.732 15.298 175.099 15.1513 175.334 14.858C175.568 14.55 175.686 14.2127 175.686 13.846C175.686 13.4647 175.561 13.1347 175.312 12.856C175.062 12.5627 174.703 12.416 174.234 12.416H171.66V15.298ZM171.66 9.182H174.014C174.483 9.182 174.828 9.05 175.048 8.786C175.268 8.522 175.378 8.214 175.378 7.862C175.378 7.51 175.268 7.202 175.048 6.938C174.828 6.674 174.483 6.542 174.014 6.542H171.66V9.182Z" fill="#F0B114"/>
<path d="M6.57202 17.62C6.42535 17.62 6.29336 17.5687 6.17603 17.466C6.05869 17.3487 6 17.2093 6 17.048V2.792C6 2.63067 6.05869 2.49867 6.17603 2.396C6.29336 2.27867 6.42535 2.22 6.57202 2.22H12.996C14.272 2.22 15.3794 2.41067 16.318 2.792C17.2714 3.17333 18.012 3.75267 18.54 4.53C19.068 5.30733 19.332 6.28267 19.332 7.456C19.332 8.62933 19.068 9.59733 18.54 10.36C18.012 11.108 17.2714 11.658 16.318 12.01C15.3794 12.362 14.272 12.538 12.996 12.538H10.906V17.048C10.906 17.2093 10.8473 17.3487 10.73 17.466C10.6273 17.5687 10.4953 17.62 10.334 17.62H6.57202ZM10.818 8.996H12.886C13.3113 8.996 13.6707 8.87133 13.964 8.622C14.272 8.358 14.426 7.95467 14.426 7.412C14.426 7.00133 14.3087 6.62733 14.074 6.29C13.8393 5.95267 13.4434 5.784 12.886 5.784H10.818V8.996Z" fill="#035EAF"/>
<path d="M27.8549 17.84C26.4469 17.84 25.2223 17.62 24.1809 17.18C23.1543 16.74 22.3403 16.08 21.739 15.2C21.1523 14.3053 20.8369 13.198 20.7929 11.878C20.7783 11.262 20.7709 10.6313 20.7709 9.986C20.7709 9.326 20.7783 8.67333 20.7929 8.028C20.8369 6.72267 21.1523 5.62267 21.739 4.728C22.3403 3.83333 23.1616 3.15867 24.2029 2.704C25.2443 2.23467 26.4616 2 27.8549 2C29.2336 2 30.4436 2.23467 31.485 2.704C32.5263 3.15867 33.3476 3.83333 33.9489 4.728C34.5503 5.62267 34.8656 6.72267 34.895 8.028C34.9243 8.67333 34.9389 9.326 34.9389 9.986C34.9389 10.6313 34.9243 11.262 34.895 11.878C34.851 13.198 34.5283 14.3053 33.9269 15.2C33.3403 16.08 32.5263 16.74 31.485 17.18C30.4583 17.62 29.2483 17.84 27.8549 17.84ZM27.8549 14.1C28.4709 14.1 28.977 13.9167 29.373 13.55C29.769 13.1687 29.9743 12.5673 29.989 11.746C30.0183 11.1153 30.033 10.5067 30.033 9.92C30.033 9.31867 30.0183 8.71 29.989 8.094C29.9743 7.55133 29.8716 7.104 29.6809 6.752C29.5049 6.4 29.2556 6.14333 28.933 5.982C28.625 5.82067 28.2656 5.74 27.8549 5.74C27.4443 5.74 27.0776 5.82067 26.7549 5.982C26.4323 6.14333 26.1756 6.4 25.985 6.752C25.809 7.104 25.7136 7.55133 25.6989 8.094C25.6843 8.71 25.6769 9.31867 25.6769 9.92C25.6769 10.5067 25.6843 11.1153 25.6989 11.746C25.7283 12.5673 25.9336 13.1687 26.3149 13.55C26.7109 13.9167 27.2243 14.1 27.8549 14.1Z" fill="#035EAF"/>
<path d="M37.7673 17.62C37.6207 17.62 37.4887 17.5687 37.3713 17.466C37.254 17.3487 37.1953 17.2093 37.1953 17.048V2.792C37.1953 2.63067 37.254 2.49867 37.3713 2.396C37.4887 2.27867 37.6207 2.22 37.7673 2.22H41.2653C41.4267 2.22 41.5586 2.27867 41.6613 2.396C41.7786 2.49867 41.8373 2.63067 41.8373 2.792V7.412L45.1153 2.682C45.1887 2.57933 45.2913 2.47667 45.4233 2.374C45.5553 2.27133 45.7387 2.22 45.9733 2.22H49.9993C50.1313 2.22 50.2413 2.27133 50.3293 2.374C50.432 2.462 50.4833 2.572 50.4833 2.704C50.4833 2.792 50.454 2.87267 50.3953 2.946L45.7753 9.59L50.7913 16.894C50.85 16.9527 50.8793 17.0333 50.8793 17.136C50.8793 17.268 50.828 17.3853 50.7253 17.488C50.6373 17.576 50.5273 17.62 50.3953 17.62H46.2373C45.9587 17.62 45.746 17.554 45.5993 17.422C45.4673 17.29 45.3867 17.1947 45.3573 17.136L41.8373 12.032V17.048C41.8373 17.2093 41.7786 17.3487 41.6613 17.466C41.5586 17.5687 41.4267 17.62 41.2653 17.62H37.7673Z" fill="#035EAF"/>
<path d="M52.9353 17.62C52.7886 17.62 52.6566 17.5687 52.5393 17.466C52.422 17.3487 52.3633 17.2093 52.3633 17.048V2.792C52.3633 2.63067 52.422 2.49867 52.5393 2.396C52.6566 2.27867 52.7886 2.22 52.9353 2.22H63.7153C63.8766 2.22 64.016 2.27867 64.1333 2.396C64.2506 2.49867 64.3093 2.63067 64.3093 2.792V5.388C64.3093 5.53467 64.2506 5.66667 64.1333 5.784C64.016 5.90133 63.8766 5.96 63.7153 5.96H56.9173V8.138H63.2313C63.3926 8.138 63.532 8.19667 63.6493 8.314C63.7666 8.41667 63.8253 8.54867 63.8253 8.71V11.086C63.8253 11.2473 63.7666 11.3867 63.6493 11.504C63.532 11.6067 63.3926 11.658 63.2313 11.658H56.9173V13.88H63.8913C64.0526 13.88 64.192 13.9387 64.3093 14.056C64.4266 14.1733 64.4853 14.3127 64.4853 14.474V17.048C64.4853 17.2093 64.4266 17.3487 64.3093 17.466C64.192 17.5687 64.0526 17.62 63.8913 17.62H52.9353Z" fill="#035EAF"/>
<path d="M67.3083 17.62C67.1617 17.62 67.0297 17.5687 66.9124 17.466C66.795 17.3487 66.7363 17.2093 66.7363 17.048V2.792C66.7363 2.63067 66.795 2.49867 66.9124 2.396C67.0297 2.27867 67.1617 2.22 67.3083 2.22H73.5783C75.573 2.22 77.135 2.67467 78.2643 3.584C79.4083 4.49333 79.9803 5.762 79.9803 7.39C79.9803 8.41667 79.7457 9.28933 79.2763 10.008C78.807 10.7267 78.191 11.2913 77.4283 11.702L80.2883 16.894C80.3323 16.982 80.3543 17.0627 80.3543 17.136C80.3543 17.268 80.3104 17.3853 80.2224 17.488C80.1344 17.576 80.0243 17.62 79.8923 17.62H76.1743C75.8957 17.62 75.683 17.554 75.5363 17.422C75.3897 17.2753 75.2943 17.1433 75.2503 17.026L73.0504 12.494H71.4663V17.048C71.4663 17.2093 71.4077 17.3487 71.2903 17.466C71.1877 17.5687 71.0557 17.62 70.8943 17.62H67.3083ZM71.4663 8.864H73.5563C74.0697 8.864 74.451 8.72467 74.7003 8.446C74.9497 8.15267 75.0743 7.79333 75.0743 7.368C75.0743 6.928 74.9497 6.554 74.7003 6.246C74.4657 5.938 74.0843 5.784 73.5563 5.784H71.4663V8.864Z" fill="#035EAF"/>
<path d="M85.3232 17.62C85.1912 17.62 85.0739 17.576 84.9713 17.488C84.8833 17.3853 84.8392 17.268 84.8392 17.136C84.8392 17.0773 84.8539 17.026 84.8832 16.982L89.8992 2.902C89.9432 2.74067 90.0386 2.58667 90.1852 2.44C90.3466 2.29333 90.5592 2.22 90.8232 2.22H94.8492C95.1279 2.22 95.3406 2.29333 95.4872 2.44C95.6339 2.58667 95.7293 2.74067 95.7733 2.902L100.811 16.982C100.826 17.026 100.833 17.0773 100.833 17.136C100.833 17.268 100.782 17.3853 100.679 17.488C100.591 17.576 100.481 17.62 100.349 17.62H96.9612C96.7119 17.62 96.5286 17.5613 96.4113 17.444C96.2939 17.3267 96.2132 17.2167 96.1693 17.114L95.4872 15.266H90.1852L89.5032 17.114C89.4592 17.2167 89.3786 17.3267 89.2612 17.444C89.1586 17.5613 88.9752 17.62 88.7112 17.62H85.3232ZM91.1972 11.548H94.4753L92.8253 6.598L91.1972 11.548Z" fill="#035EAF"/>
<path d="M104.728 17.62C104.567 17.62 104.427 17.5687 104.31 17.466C104.207 17.3487 104.156 17.2093 104.156 17.048V6.312H100.372C100.211 6.312 100.071 6.26067 99.9541 6.158C99.8514 6.04067 99.8001 5.90133 99.8001 5.74V2.792C99.8001 2.63067 99.8514 2.49867 99.9541 2.396C100.071 2.27867 100.211 2.22 100.372 2.22H112.736C112.897 2.22 113.029 2.27867 113.132 2.396C113.249 2.49867 113.308 2.63067 113.308 2.792V5.74C113.308 5.90133 113.249 6.04067 113.132 6.158C113.029 6.26067 112.897 6.312 112.736 6.312H108.952V17.048C108.952 17.2093 108.893 17.3487 108.776 17.466C108.673 17.5687 108.541 17.62 108.38 17.62H104.728Z" fill="#035EAF"/>
<path d="M125.74 17.84C124.376 17.84 123.174 17.6273 122.132 17.202C121.106 16.7767 120.299 16.1167 119.712 15.222C119.14 14.3127 118.854 13.1687 118.854 11.79V2.792C118.854 2.63067 118.913 2.49867 119.03 2.396C119.148 2.27867 119.28 2.22 119.426 2.22H123.012C123.174 2.22 123.306 2.27867 123.408 2.396C123.526 2.49867 123.584 2.63067 123.584 2.792V11.724C123.584 12.472 123.768 13.0367 124.134 13.418C124.501 13.7993 125.029 13.99 125.718 13.99C126.408 13.99 126.928 13.7993 127.28 13.418C127.647 13.0367 127.83 12.472 127.83 11.724V2.792C127.83 2.63067 127.889 2.49867 128.006 2.396C128.124 2.27867 128.263 2.22 128.424 2.22H131.988C132.15 2.22 132.282 2.27867 132.384 2.396C132.502 2.49867 132.56 2.63067 132.56 2.792V11.79C132.56 13.1687 132.274 14.3127 131.702 15.222C131.13 16.1167 130.331 16.7767 129.304 17.202C128.278 17.6273 127.09 17.84 125.74 17.84Z" fill="#035EAF"/>
<path d="M141.83 17.84C140.436 17.84 139.219 17.6273 138.178 17.202C137.136 16.762 136.315 16.102 135.714 15.222C135.127 14.342 134.804 13.2273 134.746 11.878C134.731 11.2767 134.724 10.6313 134.724 9.942C134.724 9.25267 134.731 8.59267 134.746 7.962C134.804 6.642 135.134 5.542 135.736 4.662C136.352 3.76733 137.18 3.1 138.222 2.66C139.278 2.22 140.48 2 141.83 2C142.798 2 143.7 2.11733 144.536 2.352C145.386 2.572 146.142 2.91667 146.802 3.386C147.462 3.84067 147.982 4.41267 148.364 5.102C148.745 5.77667 148.943 6.56867 148.958 7.478C148.958 7.61 148.906 7.72 148.804 7.808C148.716 7.896 148.606 7.94 148.474 7.94H144.756C144.536 7.94 144.374 7.896 144.272 7.808C144.169 7.72 144.081 7.566 144.008 7.346C143.817 6.71533 143.538 6.29 143.172 6.07C142.805 5.85 142.358 5.74 141.83 5.74C141.184 5.74 140.671 5.916 140.29 6.268C139.908 6.60533 139.703 7.20667 139.674 8.072C139.63 9.27467 139.63 10.5067 139.674 11.768C139.703 12.6333 139.908 13.242 140.29 13.594C140.671 13.9313 141.184 14.1 141.83 14.1C142.358 14.1 142.805 13.9827 143.172 13.748C143.553 13.5133 143.832 13.0953 144.008 12.494C144.066 12.2593 144.147 12.1053 144.25 12.032C144.367 11.944 144.536 11.9 144.756 11.9H148.474C148.606 11.9 148.716 11.944 148.804 12.032C148.906 12.12 148.958 12.23 148.958 12.362C148.943 13.2713 148.745 14.0707 148.364 14.76C147.982 15.4347 147.462 16.0067 146.802 16.476C146.142 16.9307 145.386 17.2753 144.536 17.51C143.7 17.73 142.798 17.84 141.83 17.84Z" fill="#035EAF"/>
<path d="M157.071 17.84C155.531 17.84 154.247 17.6273 153.221 17.202C152.209 16.762 151.446 16.1973 150.933 15.508C150.434 14.804 150.17 14.0633 150.141 13.286C150.141 13.154 150.185 13.044 150.273 12.956C150.361 12.868 150.471 12.824 150.603 12.824H154.101C154.306 12.824 154.467 12.8607 154.585 12.934C154.702 12.9927 154.827 13.0807 154.959 13.198C155.091 13.3593 155.245 13.5133 155.421 13.66C155.597 13.792 155.824 13.902 156.103 13.99C156.381 14.0633 156.704 14.1 157.071 14.1C157.745 14.1 158.266 14.012 158.633 13.836C158.999 13.6453 159.183 13.3887 159.183 13.066C159.183 12.8167 159.08 12.6113 158.875 12.45C158.684 12.2887 158.354 12.142 157.885 12.01C157.415 11.878 156.777 11.7387 155.971 11.592C154.841 11.4013 153.866 11.1227 153.045 10.756C152.223 10.3747 151.593 9.86867 151.153 9.238C150.727 8.59267 150.515 7.80067 150.515 6.862C150.515 5.90867 150.779 5.06533 151.307 4.332C151.849 3.59867 152.597 3.02667 153.551 2.616C154.519 2.20533 155.641 2 156.917 2C157.973 2 158.904 2.13933 159.711 2.418C160.532 2.69667 161.221 3.06333 161.779 3.518C162.336 3.958 162.761 4.43467 163.055 4.948C163.348 5.46133 163.502 5.95267 163.517 6.422C163.517 6.554 163.465 6.67133 163.363 6.774C163.275 6.862 163.172 6.906 163.055 6.906H159.381C159.205 6.906 159.051 6.87667 158.919 6.818C158.801 6.75933 158.691 6.664 158.589 6.532C158.515 6.32667 158.332 6.14333 158.039 5.982C157.745 5.82067 157.371 5.74 156.917 5.74C156.418 5.74 156.037 5.828 155.773 6.004C155.509 6.16533 155.377 6.40733 155.377 6.73C155.377 6.95 155.457 7.14067 155.619 7.302C155.78 7.46333 156.066 7.61 156.477 7.742C156.887 7.85933 157.459 7.99133 158.193 8.138C159.586 8.34333 160.708 8.63667 161.559 9.018C162.424 9.39933 163.055 9.898 163.451 10.514C163.847 11.13 164.045 11.9 164.045 12.824C164.045 13.8653 163.744 14.76 163.143 15.508C162.541 16.256 161.713 16.8353 160.657 17.246C159.615 17.642 158.42 17.84 157.071 17.84Z" fill="#035EAF"/>
<path d="M166.502 17.62C166.355 17.62 166.223 17.5687 166.106 17.466C165.988 17.3487 165.93 17.2093 165.93 17.048V2.792C165.93 2.63067 165.988 2.49867 166.106 2.396C166.223 2.27867 166.355 2.22 166.502 2.22H173.52C174.854 2.22 175.947 2.396 176.798 2.748C177.648 3.1 178.279 3.606 178.69 4.266C179.1 4.926 179.306 5.74 179.306 6.708C179.306 7.20667 179.203 7.654 178.998 8.05C178.807 8.43133 178.572 8.754 178.294 9.018C178.015 9.26733 177.751 9.45067 177.502 9.568C178.074 9.81733 178.572 10.2427 178.998 10.844C179.423 11.4307 179.636 12.1053 179.636 12.868C179.636 13.8947 179.401 14.76 178.932 15.464C178.477 16.168 177.81 16.7033 176.93 17.07C176.064 17.4367 175.001 17.62 173.74 17.62H166.502ZM170.66 14.298H173.234C173.732 14.298 174.099 14.1513 174.334 13.858C174.568 13.55 174.686 13.2127 174.686 12.846C174.686 12.4647 174.561 12.1347 174.312 11.856C174.062 11.5627 173.703 11.416 173.234 11.416H170.66V14.298ZM170.66 8.182H173.014C173.483 8.182 173.828 8.05 174.048 7.786C174.268 7.522 174.378 7.214 174.378 6.862C174.378 6.51 174.268 6.202 174.048 5.938C173.828 5.674 173.483 5.542 173.014 5.542H170.66V8.182Z" fill="#035EAF"/>
<path d="M4.57202 15.62C4.42535 15.62 4.29336 15.5687 4.17603 15.466C4.05869 15.3487 4 15.2093 4 15.048V0.792C4 0.630666 4.05869 0.498666 4.17603 0.396C4.29336 0.278667 4.42535 0.22 4.57202 0.22H10.996C12.272 0.22 13.3794 0.410667 14.318 0.792C15.2714 1.17333 16.012 1.75267 16.54 2.53C17.068 3.30733 17.332 4.28267 17.332 5.456C17.332 6.62933 17.068 7.59733 16.54 8.36C16.012 9.108 15.2714 9.658 14.318 10.01C13.3794 10.362 12.272 10.538 10.996 10.538H8.90601V15.048C8.90601 15.2093 8.84734 15.3487 8.73001 15.466C8.62734 15.5687 8.49535 15.62 8.33401 15.62H4.57202ZM8.81802 6.996H10.886C11.3113 6.996 11.6707 6.87133 11.964 6.622C12.272 6.358 12.426 5.95467 12.426 5.412C12.426 5.00133 12.3087 4.62733 12.074 4.29C11.8393 3.95267 11.4434 3.784 10.886 3.784H8.81802V6.996Z" fill="white"/>
<path d="M25.8549 15.84C24.4469 15.84 23.2223 15.62 22.1809 15.18C21.1543 14.74 20.3403 14.08 19.739 13.2C19.1523 12.3053 18.8369 11.198 18.7929 9.878C18.7783 9.262 18.7709 8.63133 18.7709 7.986C18.7709 7.326 18.7783 6.67333 18.7929 6.028C18.8369 4.72267 19.1523 3.62267 19.739 2.728C20.3403 1.83333 21.1616 1.15867 22.2029 0.704C23.2443 0.234667 24.4616 0 25.8549 0C27.2336 0 28.4436 0.234667 29.485 0.704C30.5263 1.15867 31.3476 1.83333 31.9489 2.728C32.5503 3.62267 32.8656 4.72267 32.895 6.028C32.9243 6.67333 32.9389 7.326 32.9389 7.986C32.9389 8.63133 32.9243 9.262 32.895 9.878C32.851 11.198 32.5283 12.3053 31.9269 13.2C31.3403 14.08 30.5263 14.74 29.485 15.18C28.4583 15.62 27.2483 15.84 25.8549 15.84ZM25.8549 12.1C26.4709 12.1 26.977 11.9167 27.373 11.55C27.769 11.1687 27.9743 10.5673 27.989 9.746C28.0183 9.11533 28.033 8.50667 28.033 7.92C28.033 7.31867 28.0183 6.71 27.989 6.094C27.9743 5.55133 27.8716 5.104 27.6809 4.752C27.5049 4.4 27.2556 4.14333 26.933 3.982C26.625 3.82067 26.2656 3.74 25.8549 3.74C25.4443 3.74 25.0776 3.82067 24.7549 3.982C24.4323 4.14333 24.1756 4.4 23.985 4.752C23.809 5.104 23.7136 5.55133 23.6989 6.094C23.6843 6.71 23.6769 7.31867 23.6769 7.92C23.6769 8.50667 23.6843 9.11533 23.6989 9.746C23.7283 10.5673 23.9336 11.1687 24.3149 11.55C24.7109 11.9167 25.2243 12.1 25.8549 12.1Z" fill="white"/>
<path d="M35.7673 15.62C35.6207 15.62 35.4887 15.5687 35.3713 15.466C35.254 15.3487 35.1953 15.2093 35.1953 15.048V0.792C35.1953 0.630666 35.254 0.498666 35.3713 0.396C35.4887 0.278667 35.6207 0.22 35.7673 0.22H39.2653C39.4267 0.22 39.5586 0.278667 39.6613 0.396C39.7786 0.498666 39.8373 0.630666 39.8373 0.792V5.412L43.1153 0.682C43.1887 0.579333 43.2913 0.476667 43.4233 0.374C43.5553 0.271333 43.7387 0.22 43.9733 0.22H47.9993C48.1313 0.22 48.2413 0.271333 48.3293 0.374C48.432 0.462 48.4833 0.572 48.4833 0.704C48.4833 0.792 48.454 0.872666 48.3953 0.946L43.7753 7.59L48.7913 14.894C48.85 14.9527 48.8793 15.0333 48.8793 15.136C48.8793 15.268 48.828 15.3853 48.7253 15.488C48.6373 15.576 48.5273 15.62 48.3953 15.62H44.2373C43.9587 15.62 43.746 15.554 43.5993 15.422C43.4673 15.29 43.3867 15.1947 43.3573 15.136L39.8373 10.032V15.048C39.8373 15.2093 39.7786 15.3487 39.6613 15.466C39.5586 15.5687 39.4267 15.62 39.2653 15.62H35.7673Z" fill="white"/>
<path d="M50.9353 15.62C50.7886 15.62 50.6566 15.5687 50.5393 15.466C50.422 15.3487 50.3633 15.2093 50.3633 15.048V0.792C50.3633 0.630666 50.422 0.498666 50.5393 0.396C50.6566 0.278667 50.7886 0.22 50.9353 0.22H61.7153C61.8766 0.22 62.016 0.278667 62.1333 0.396C62.2506 0.498666 62.3093 0.630666 62.3093 0.792V3.388C62.3093 3.53467 62.2506 3.66667 62.1333 3.784C62.016 3.90133 61.8766 3.96 61.7153 3.96H54.9173V6.138H61.2313C61.3926 6.138 61.532 6.19667 61.6493 6.314C61.7666 6.41667 61.8253 6.54867 61.8253 6.71V9.086C61.8253 9.24733 61.7666 9.38667 61.6493 9.504C61.532 9.60667 61.3926 9.658 61.2313 9.658H54.9173V11.88H61.8913C62.0526 11.88 62.192 11.9387 62.3093 12.056C62.4266 12.1733 62.4853 12.3127 62.4853 12.474V15.048C62.4853 15.2093 62.4266 15.3487 62.3093 15.466C62.192 15.5687 62.0526 15.62 61.8913 15.62H50.9353Z" fill="white"/>
<path d="M65.3083 15.62C65.1617 15.62 65.0297 15.5687 64.9124 15.466C64.795 15.3487 64.7363 15.2093 64.7363 15.048V0.792C64.7363 0.630666 64.795 0.498666 64.9124 0.396C65.0297 0.278667 65.1617 0.22 65.3083 0.22H71.5783C73.573 0.22 75.135 0.674667 76.2643 1.584C77.4083 2.49333 77.9803 3.762 77.9803 5.39C77.9803 6.41667 77.7457 7.28933 77.2763 8.008C76.807 8.72667 76.191 9.29133 75.4283 9.702L78.2883 14.894C78.3323 14.982 78.3543 15.0627 78.3543 15.136C78.3543 15.268 78.3104 15.3853 78.2224 15.488C78.1344 15.576 78.0243 15.62 77.8923 15.62H74.1743C73.8957 15.62 73.683 15.554 73.5363 15.422C73.3897 15.2753 73.2943 15.1433 73.2503 15.026L71.0504 10.494H69.4663V15.048C69.4663 15.2093 69.4077 15.3487 69.2903 15.466C69.1877 15.5687 69.0557 15.62 68.8943 15.62H65.3083ZM69.4663 6.864H71.5563C72.0697 6.864 72.451 6.72467 72.7003 6.446C72.9497 6.15267 73.0743 5.79333 73.0743 5.368C73.0743 4.928 72.9497 4.554 72.7003 4.246C72.4657 3.938 72.0843 3.784 71.5563 3.784H69.4663V6.864Z" fill="white"/>
<path d="M83.3232 15.62C83.1912 15.62 83.0739 15.576 82.9713 15.488C82.8833 15.3853 82.8392 15.268 82.8392 15.136C82.8392 15.0773 82.8539 15.026 82.8832 14.982L87.8992 0.902C87.9432 0.740667 88.0386 0.586667 88.1852 0.44C88.3466 0.293333 88.5592 0.22 88.8232 0.22H92.8492C93.1279 0.22 93.3406 0.293333 93.4872 0.44C93.6339 0.586667 93.7293 0.740667 93.7733 0.902L98.8112 14.982C98.8259 15.026 98.8333 15.0773 98.8333 15.136C98.8333 15.268 98.7819 15.3853 98.6793 15.488C98.5913 15.576 98.4812 15.62 98.3492 15.62H94.9612C94.7119 15.62 94.5286 15.5613 94.4113 15.444C94.2939 15.3267 94.2132 15.2167 94.1693 15.114L93.4872 13.266H88.1852L87.5032 15.114C87.4592 15.2167 87.3786 15.3267 87.2612 15.444C87.1586 15.5613 86.9752 15.62 86.7112 15.62H83.3232ZM89.1972 9.548H92.4753L90.8253 4.598L89.1972 9.548Z" fill="white"/>
<path d="M102.728 15.62C102.567 15.62 102.427 15.5687 102.31 15.466C102.207 15.3487 102.156 15.2093 102.156 15.048V4.312H98.3721C98.2108 4.312 98.0714 4.26067 97.9541 4.158C97.8514 4.04067 97.8001 3.90133 97.8001 3.74V0.792C97.8001 0.630666 97.8514 0.498666 97.9541 0.396C98.0714 0.278667 98.2108 0.22 98.3721 0.22H110.736C110.897 0.22 111.029 0.278667 111.132 0.396C111.249 0.498666 111.308 0.630666 111.308 0.792V3.74C111.308 3.90133 111.249 4.04067 111.132 4.158C111.029 4.26067 110.897 4.312 110.736 4.312H106.952V15.048C106.952 15.2093 106.893 15.3487 106.776 15.466C106.673 15.5687 106.541 15.62 106.38 15.62H102.728Z" fill="white"/>
<path d="M123.74 15.84C122.376 15.84 121.174 15.6273 120.132 15.202C119.106 14.7767 118.299 14.1167 117.712 13.222C117.14 12.3127 116.854 11.1687 116.854 9.79V0.792C116.854 0.630666 116.913 0.498666 117.03 0.396C117.148 0.278667 117.28 0.22 117.426 0.22H121.012C121.174 0.22 121.306 0.278667 121.408 0.396C121.526 0.498666 121.584 0.630666 121.584 0.792V9.724C121.584 10.472 121.768 11.0367 122.134 11.418C122.501 11.7993 123.029 11.99 123.718 11.99C124.408 11.99 124.928 11.7993 125.28 11.418C125.647 11.0367 125.83 10.472 125.83 9.724V0.792C125.83 0.630666 125.889 0.498666 126.006 0.396C126.124 0.278667 126.263 0.22 126.424 0.22H129.988C130.15 0.22 130.282 0.278667 130.384 0.396C130.502 0.498666 130.56 0.630666 130.56 0.792V9.79C130.56 11.1687 130.274 12.3127 129.702 13.222C129.13 14.1167 128.331 14.7767 127.304 15.202C126.278 15.6273 125.09 15.84 123.74 15.84Z" fill="white"/>
<path d="M139.83 15.84C138.436 15.84 137.219 15.6273 136.178 15.202C135.136 14.762 134.315 14.102 133.714 13.222C133.127 12.342 132.804 11.2273 132.746 9.878C132.731 9.27667 132.724 8.63133 132.724 7.942C132.724 7.25267 132.731 6.59267 132.746 5.962C132.804 4.642 133.134 3.542 133.736 2.662C134.352 1.76733 135.18 1.1 136.222 0.660001C137.278 0.22 138.48 0 139.83 0C140.798 0 141.7 0.117334 142.536 0.352001C143.386 0.572001 144.142 0.916667 144.802 1.386C145.462 1.84067 145.982 2.41267 146.364 3.102C146.745 3.77667 146.943 4.56867 146.958 5.478C146.958 5.61 146.906 5.72 146.804 5.808C146.716 5.896 146.606 5.94 146.474 5.94H142.756C142.536 5.94 142.374 5.896 142.272 5.808C142.169 5.72 142.081 5.566 142.008 5.346C141.817 4.71533 141.538 4.29 141.172 4.07C140.805 3.85 140.358 3.74 139.83 3.74C139.184 3.74 138.671 3.916 138.29 4.268C137.908 4.60533 137.703 5.20667 137.674 6.072C137.63 7.27467 137.63 8.50667 137.674 9.768C137.703 10.6333 137.908 11.242 138.29 11.594C138.671 11.9313 139.184 12.1 139.83 12.1C140.358 12.1 140.805 11.9827 141.172 11.748C141.553 11.5133 141.832 11.0953 142.008 10.494C142.066 10.2593 142.147 10.1053 142.25 10.032C142.367 9.944 142.536 9.9 142.756 9.9H146.474C146.606 9.9 146.716 9.944 146.804 10.032C146.906 10.12 146.958 10.23 146.958 10.362C146.943 11.2713 146.745 12.0707 146.364 12.76C145.982 13.4347 145.462 14.0067 144.802 14.476C144.142 14.9307 143.386 15.2753 142.536 15.51C141.7 15.73 140.798 15.84 139.83 15.84Z" fill="white"/>
<path d="M155.071 15.84C153.531 15.84 152.247 15.6273 151.221 15.202C150.209 14.762 149.446 14.1973 148.933 13.508C148.434 12.804 148.17 12.0633 148.141 11.286C148.141 11.154 148.185 11.044 148.273 10.956C148.361 10.868 148.471 10.824 148.603 10.824H152.101C152.306 10.824 152.467 10.8607 152.585 10.934C152.702 10.9927 152.827 11.0807 152.959 11.198C153.091 11.3593 153.245 11.5133 153.421 11.66C153.597 11.792 153.824 11.902 154.103 11.99C154.381 12.0633 154.704 12.1 155.071 12.1C155.745 12.1 156.266 12.012 156.633 11.836C156.999 11.6453 157.183 11.3887 157.183 11.066C157.183 10.8167 157.08 10.6113 156.875 10.45C156.684 10.2887 156.354 10.142 155.885 10.01C155.415 9.878 154.777 9.73867 153.971 9.592C152.841 9.40133 151.866 9.12267 151.045 8.756C150.223 8.37467 149.593 7.86867 149.153 7.238C148.727 6.59267 148.515 5.80067 148.515 4.862C148.515 3.90867 148.779 3.06533 149.307 2.332C149.849 1.59867 150.597 1.02667 151.551 0.616C152.519 0.205333 153.641 0 154.917 0C155.973 0 156.904 0.139333 157.711 0.418C158.532 0.696666 159.221 1.06333 159.779 1.518C160.336 1.958 160.761 2.43467 161.055 2.948C161.348 3.46133 161.502 3.95267 161.517 4.422C161.517 4.554 161.465 4.67133 161.363 4.774C161.275 4.862 161.172 4.906 161.055 4.906H157.381C157.205 4.906 157.051 4.87667 156.919 4.818C156.801 4.75933 156.691 4.664 156.589 4.532C156.515 4.32667 156.332 4.14333 156.039 3.982C155.745 3.82067 155.371 3.74 154.917 3.74C154.418 3.74 154.037 3.828 153.773 4.004C153.509 4.16533 153.377 4.40733 153.377 4.73C153.377 4.95 153.457 5.14067 153.619 5.302C153.78 5.46333 154.066 5.61 154.477 5.742C154.887 5.85933 155.459 5.99133 156.193 6.138C157.586 6.34333 158.708 6.63667 159.559 7.018C160.424 7.39933 161.055 7.898 161.451 8.514C161.847 9.13 162.045 9.9 162.045 10.824C162.045 11.8653 161.744 12.76 161.143 13.508C160.541 14.256 159.713 14.8353 158.657 15.246C157.615 15.642 156.42 15.84 155.071 15.84Z" fill="white"/>
<path d="M164.502 15.62C164.355 15.62 164.223 15.5687 164.106 15.466C163.988 15.3487 163.93 15.2093 163.93 15.048V0.792C163.93 0.630666 163.988 0.498666 164.106 0.396C164.223 0.278667 164.355 0.22 164.502 0.22H171.52C172.854 0.22 173.947 0.396 174.798 0.748C175.648 1.1 176.279 1.606 176.69 2.266C177.1 2.926 177.306 3.74 177.306 4.708C177.306 5.20667 177.203 5.654 176.998 6.05C176.807 6.43133 176.572 6.754 176.294 7.018C176.015 7.26733 175.751 7.45067 175.502 7.568C176.074 7.81733 176.572 8.24267 176.998 8.844C177.423 9.43067 177.636 10.1053 177.636 10.868C177.636 11.8947 177.401 12.76 176.932 13.464C176.477 14.168 175.81 14.7033 174.93 15.07C174.064 15.4367 173.001 15.62 171.74 15.62H164.502ZM168.66 12.298H171.234C171.732 12.298 172.099 12.1513 172.334 11.858C172.568 11.55 172.686 11.2127 172.686 10.846C172.686 10.4647 172.561 10.1347 172.312 9.856C172.062 9.56267 171.703 9.416 171.234 9.416H168.66V12.298ZM168.66 6.182H171.014C171.483 6.182 171.828 6.05 172.048 5.786C172.268 5.522 172.378 5.214 172.378 4.862C172.378 4.51 172.268 4.202 172.048 3.938C171.828 3.674 171.483 3.542 171.014 3.542H168.66V6.182Z" fill="white"/>
</g>
<defs>
<filter id="filter0_d_58_39" x="0" y="0" width="184.636" height="26.8398" filterUnits="userSpaceOnUse" color-interpolation-filters="sRGB">
<feFlood flood-opacity="0" result="BackgroundImageFix"/>
<feColorMatrix in="SourceAlpha" type="matrix" values="0 0 0 0 0 0 0 0 0 0 0 0 0 0 0 0 0 0 127 0" result="hardAlpha"/>
<feOffset dy="4"/>
<feGaussianBlur stdDeviation="2"/>
<feComposite in2="hardAlpha" operator="out"/>
<feColorMatrix type="matrix" values="0 0 0 0 0 0 0 0 0 0 0 0 0 0 0 0 0 0 0.25 0"/>
<feBlend mode="normal" in2="BackgroundImageFix" result="effect1_dropShadow_58_39"/>
<feBlend mode="normal" in="SourceGraphic" in2="effect1_dropShadow_58_39" result="shape"/>
</filter>
</defs>
</svg>
